<?xml version="1.0" encoding="UTF-8"?>
<svg xmlns="http://www.w3.org/2000/svg" xmlns:xlink="http://www.w3.org/1999/xlink" version="1.1" x="0px" y="0px" viewBox="0 0 500 500" style="background: transparent;" xml:space="preserve">
<g id="BACKGROUND">
	<g>
		
		
			<line style="fill:none;stroke:#462837;stroke-width:1.6;stroke-linecap:round;stroke-linejoin:round;stroke-miterlimit:10;" x1="79.921" y1="329.921" x2="391.732" y2="329.921"/>
	</g>
</g>
<g id="OBJECTS">
	<g>
		<ellipse style="opacity:0.25;fill:#C8C8C8;" cx="261.339" cy="406.81" rx="141.732" ry="25.512"/>
		<g>
			<path style="fill:#F5C3B4;" d="M266.278,159.731c-20.941-12.02-41.655-17.698-68.101-16.667     C130.983,145.683,88.17,189.696,88.17,250.451c0,60.755,42.813,104.77,110.007,107.389c26.445,1.031,47.16-4.647,68.101-16.667     c31.282-17.956,52.383-51.946,52.383-90.72C318.661,211.679,297.561,177.687,266.278,159.731z M219.567,275.786     c-7.527-2.912-13.096-13.134-13.096-25.334c0-12.2,5.569-22.422,13.096-25.334c7.527,2.912,13.096,13.133,13.096,25.334     C232.664,262.653,227.095,272.875,219.567,275.786z"/>
			<path style="opacity:0.5;fill:#F5C3B4;" d="M277.803,327.238c-21.988,12.621-43.738,18.583-71.506,17.501     c-70.554-2.75-115.507-48.966-115.507-112.759c0-2.628,0.105-5.213,0.255-7.779c-1.884,8.316-2.874,17.089-2.874,26.251     c0,60.755,42.813,104.77,110.007,107.389c26.445,1.031,47.16-4.647,68.101-16.667c13.168-7.558,24.521-17.966,33.266-30.367     C293.024,317.15,285.729,322.688,277.803,327.238z"/>
			<path style="opacity:0.3;fill:#A55F50;" d="M315.542,237.072c-0.584-4.458-2.481-8.623-3.624-12.882     c-1.161-4.329-1.611-8.883-3.308-12.966c-1.716-4.128-4.633-7.657-6.855-11.492c-2.237-3.861-3.851-8.144-6.559-11.664     c-2.716-3.531-6.442-6.19-9.587-9.335c-3.145-3.145-5.804-6.872-9.335-9.587c-3.52-2.707-7.803-4.322-11.663-6.559     c-3.835-2.223-7.363-5.139-11.491-6.855c-4.083-1.697-8.636-2.147-12.965-3.308c-4.259-1.142-8.423-3.04-12.881-3.624     c-4.358-0.571-8.87,0.178-13.381,0.178c-4.511,0-9.023-0.749-13.381-0.178c-4.458,0.584-8.622,2.482-12.881,3.624     c-4.329,1.161-8.883,1.611-12.966,3.308c-4.129,1.716-7.657,4.633-11.492,6.856c-3.86,2.237-8.143,3.852-11.663,6.559     c-3.531,2.716-6.19,6.443-9.335,9.588c-3.145,3.145-6.872,5.804-9.587,9.335c-2.707,3.52-4.322,7.803-6.559,11.663     c-2.222,3.835-5.139,7.363-6.855,11.492c-1.697,4.083-2.147,8.636-3.308,12.965c-1.142,4.259-3.04,8.423-3.624,12.881     c-0.571,4.358,0.178,8.87,0.178,13.381c0,4.511-0.749,9.023-0.178,13.381c0.584,4.458,2.481,8.623,3.624,12.882     c1.161,4.329,1.611,8.883,3.308,12.966c1.716,4.128,4.633,7.657,6.856,11.492c2.237,3.86,3.852,8.143,6.559,11.663     c2.716,3.531,6.442,6.19,9.587,9.335c3.145,3.145,5.804,6.872,9.335,9.587c3.52,2.707,7.803,4.321,11.664,6.558     c3.834,2.223,7.363,5.139,11.491,6.855c4.083,1.697,8.636,2.146,12.965,3.307c4.259,1.142,8.423,3.04,12.881,3.624     c4.358,0.571,8.87-0.178,13.381-0.178c4.511,0,9.023,0.749,13.381,0.178c4.458-0.584,8.623-2.482,12.882-3.624     c4.329-1.161,8.883-1.61,12.966-3.308c4.128-1.716,7.657-4.633,11.492-6.855c3.861-2.237,8.144-3.852,11.663-6.559     c3.531-2.716,6.19-6.442,9.335-9.587c3.145-3.145,6.872-5.804,9.587-9.335c2.707-3.52,4.321-7.803,6.558-11.663     c2.223-3.835,5.139-7.363,6.855-11.492c1.697-4.083,2.147-8.636,3.307-12.965c1.142-4.259,3.04-8.423,3.624-12.881     c0.571-4.358-0.178-8.87-0.178-13.381C315.364,245.942,316.113,241.43,315.542,237.072z M219.567,275.786     c-7.527-2.912-13.096-13.134-13.096-25.334c0-12.2,5.569-22.422,13.096-25.334c7.527,2.912,13.096,13.133,13.096,25.334     C232.664,262.653,227.095,272.875,219.567,275.786z"/>
			<path style="opacity:0.15;fill:#A55F50;" d="M315.545,237.072c-0.584-4.458-2.481-8.623-3.624-12.882     c-1.161-4.329-1.611-8.883-3.308-12.966c-1.716-4.128-4.633-7.657-6.856-11.492c-2.237-3.861-3.851-8.144-6.558-11.664     c-2.716-3.531-6.443-6.19-9.587-9.335c-3.145-3.145-5.804-6.872-9.335-9.587c-3.52-2.707-7.803-4.322-11.663-6.559     c-3.835-2.223-7.363-5.139-11.491-6.855c-4.084-1.698-8.637-2.147-12.965-3.308c-4.259-1.142-8.423-3.04-12.881-3.624     c-4.358-0.571-8.87,0.178-13.382,0.178c-4.511,0-9.023-0.749-13.381-0.178c-4.458,0.584-8.622,2.482-12.881,3.624     c-4.329,1.161-8.884,1.611-12.967,3.308c-4.128,1.716-7.657,4.633-11.492,6.856c-3.86,2.237-8.143,3.852-11.663,6.559     c-3.531,2.716-6.19,6.443-9.335,9.588s-6.872,5.804-9.587,9.335c-2.707,3.52-4.321,7.803-6.559,11.664     c-2.222,3.835-5.139,7.363-6.855,11.492c-1.697,4.083-2.147,8.636-3.308,12.965c-1.142,4.259-3.04,8.424-3.624,12.882     c-0.571,4.358,0.178,8.87,0.178,13.382c0,4.511-0.749,9.023-0.178,13.381c0.584,4.457,2.481,8.622,3.624,12.882     c1.161,4.33,1.611,8.883,3.308,12.966c1.716,4.129,4.633,7.657,6.856,11.492c2.237,3.86,3.852,8.143,6.56,11.663     c2.715,3.531,6.442,6.19,9.587,9.335c3.145,3.145,5.804,6.871,9.335,9.587c3.52,2.707,7.803,4.321,11.664,6.558     c3.835,2.223,7.364,5.139,11.492,6.855c4.083,1.697,8.636,2.147,12.965,3.307c4.259,1.142,8.423,3.04,12.881,3.624     c4.358,0.571,8.87-0.178,13.381-0.178c4.512,0,9.023,0.749,13.381,0.178c4.458-0.584,8.623-2.482,12.882-3.624     c4.329-1.161,8.883-1.61,12.966-3.308c4.128-1.716,7.656-4.633,11.492-6.855c3.861-2.237,8.144-3.852,11.663-6.559     c3.531-2.716,6.19-6.442,9.335-9.587c3.145-3.145,6.872-5.804,9.587-9.335c2.707-3.52,4.321-7.803,6.558-11.663     c2.223-3.835,5.139-7.364,6.856-11.492c1.697-4.083,2.147-8.636,3.307-12.965c1.142-4.259,3.04-8.424,3.624-12.881     c0.571-4.358-0.178-8.87-0.178-13.381C315.367,245.942,316.115,241.43,315.545,237.072z M312.706,262.978     c-0.547,4.173-2.323,8.07-3.392,12.057c-1.086,4.052-1.507,8.313-3.096,12.135c-1.606,3.864-4.336,7.167-6.416,10.756     c-2.094,3.613-3.605,7.622-6.139,10.917c-2.542,3.305-6.03,5.794-8.973,8.737c-2.944,2.944-5.433,6.432-8.738,8.974     c-3.294,2.534-7.303,4.045-10.917,6.139c-3.59,2.08-6.892,4.81-10.756,6.417c-3.822,1.589-8.084,2.01-12.136,3.096     c-3.987,1.069-7.885,2.846-12.058,3.392c-4.079,0.534-8.302-0.167-12.525-0.167c-4.222,0-8.445,0.701-12.525,0.167     c-4.173-0.546-8.071-2.323-12.057-3.392c-4.051-1.086-8.313-1.507-12.135-3.096c-3.864-1.607-7.167-4.336-10.756-6.417     c-3.614-2.094-7.622-3.605-10.917-6.139c-3.305-2.541-5.794-6.03-8.738-8.973c-2.944-2.944-6.432-5.433-8.974-8.737     c-2.534-3.295-4.045-7.304-6.139-10.917c-2.08-3.589-4.81-6.892-6.417-10.756c-1.589-3.822-2.01-8.084-3.096-12.136     c-1.069-3.987-2.845-7.885-3.392-12.057c-0.534-4.079,0.167-8.302,0.167-12.525c0-4.223-0.701-8.446-0.167-12.525     c0.546-4.173,2.323-8.071,3.392-12.057c1.086-4.052,1.507-8.314,3.096-12.135c1.606-3.864,4.336-7.167,6.416-10.757     c2.094-3.613,3.605-7.622,6.139-10.917c2.541-3.305,6.029-5.794,8.974-8.738c2.943-2.944,5.432-6.432,8.737-8.974     c3.295-2.534,7.304-4.045,10.917-6.139c3.59-2.08,6.893-4.811,10.757-6.417c3.822-1.589,8.085-2.01,12.136-3.096     c3.987-1.069,7.885-2.846,12.057-3.392c4.079-0.534,8.302,0.167,12.525,0.167c4.223,0,8.446-0.701,12.526-0.167     c4.172,0.546,8.07,2.323,12.057,3.392c4.051,1.087,8.313,1.507,12.135,3.096c3.864,1.606,7.166,4.336,10.756,6.417     c3.613,2.094,7.622,3.605,10.917,6.139c3.305,2.542,5.794,6.03,8.738,8.973c2.943,2.944,6.431,5.433,8.973,8.738     c2.534,3.295,4.045,7.304,6.139,10.917c2.08,3.59,4.81,6.892,6.416,10.757c1.589,3.822,2.01,8.084,3.097,12.137     c1.069,3.986,2.845,7.885,3.392,12.057c0.534,4.079-0.167,8.302-0.167,12.525C312.539,254.676,313.241,258.898,312.706,262.978z"/>
			<path style="opacity:0.5;fill:#F5C3B4;" d="M223.992,224.261c-1.526,0-3.006,0.294-4.416,0.845v0.017     c7.523,2.916,13.089,13.134,13.089,25.33c0,12.176-5.547,22.378-13.052,25.314v0.048c1.4,0.542,2.867,0.831,4.38,0.831     c9.643,0,17.461-11.727,17.461-26.192C241.453,235.987,233.635,224.261,223.992,224.261z"/>
			<path style="opacity:0.25;fill:#FAFAFA;" d="M112.026,295.019c-5.237,0-14.056-13.499-15.952-21.091     c-1.85-7.407-2.359-15.319-2.359-23.477c0-28.559,9.738-53.303,28.164-71.556c10.533-10.436,23.497-18.296,38.368-23.411     c2.369-0.815,2.926,0.547,0.144,2.307c-1.221,0.772-2.586,1.395-4.001,2.104c-2.75,1.381-5.595,2.806-8.262,4.858     c-2.671,2.054-4.779,4.436-6.818,6.739c-1.047,1.184-2.038,2.303-3.057,3.322c-1.018,1.018-2.135,2.007-3.319,3.053     c-2.303,2.038-4.685,4.147-6.742,6.822c-2.054,2.669-3.481,5.517-4.86,8.269c-0.709,1.413-1.377,2.747-2.101,3.994     c-0.715,1.233-1.532,2.467-2.398,3.772c-1.709,2.574-3.476,5.235-4.781,8.374c-1.289,3.104-1.929,6.224-2.548,9.244     c-0.318,1.55-0.617,3.014-0.993,4.411c-0.365,1.359-0.83,2.75-1.323,4.225c-0.984,2.938-2,5.977-2.444,9.372     c-0.433,3.301-0.242,6.464-0.058,9.525c0.097,1.597,0.188,3.106,0.188,4.578c0,1.473-0.09,2.981-0.188,4.579     c-0.184,3.061-0.375,6.224,0.058,9.521c0.444,3.398,1.46,6.437,2.444,9.375c0.493,1.474,0.958,2.866,1.323,4.221     c0.375,1.4,0.675,2.864,0.993,4.413C112.121,285.574,114.504,295.019,112.026,295.019z"/>
			<g>
				<g>
					<path style="fill:#462837;" d="M158.443,196.115c-1.951,0.252-3.65-0.448-3.794-1.563c-0.144-1.115,1.322-2.223,3.273-2.475       c1.951-0.252,3.65,0.448,3.794,1.563C161.86,194.755,160.395,195.863,158.443,196.115z"/>
					<path style="fill:#462837;" d="M158.443,174.554c-1.951,0.252-3.65-0.448-3.794-1.563c-0.144-1.115,1.322-2.223,3.273-2.475       c1.951-0.252,3.65,0.448,3.794,1.563C161.86,173.194,160.395,174.302,158.443,174.554z"/>
					<path style="fill:#462837;" d="M177.581,210.508c0.052,1.984-0.825,3.615-1.959,3.645c-1.133,0.029-2.094-1.555-2.146-3.538       c-0.052-1.984,0.825-3.615,1.959-3.645C176.569,206.94,177.53,208.524,177.581,210.508z"/>
					<path style="fill:#462837;" d="M137.174,218.167c1.366-1.439,3.14-1.973,3.962-1.192c0.822,0.781,0.382,2.58-0.984,4.019       s-3.14,1.973-3.962,1.192C135.367,221.406,135.808,219.607,137.174,218.167z"/>
					<path style="fill:#462837;" d="M149.946,217.376c-1.984,0.052-3.615-0.825-3.645-1.959c-0.029-1.133,1.555-2.094,3.538-2.146       c1.984-0.052,3.615,0.825,3.645,1.959C153.514,216.364,151.929,217.325,149.946,217.376z"/>
					<path style="fill:#462837;" d="M161.624,243.09c1.671,1.305,2.421,3.137,1.675,4.092c-0.746,0.955-2.705,0.671-4.376-0.634       c-1.671-1.305-2.421-3.137-1.675-4.092C157.995,241.501,159.954,241.785,161.624,243.09z"/>
					<path style="fill:#462837;" d="M168.667,283.783c1.715,1.595,2.367,3.683,1.455,4.663c-0.912,0.98-3.041,0.481-4.756-1.114       c-1.715-1.595-2.367-3.683-1.455-4.663C164.822,281.689,166.952,282.188,168.667,283.783z"/>
					<path style="fill:#462837;" d="M132.686,292.003c1.595-1.715,3.683-2.367,4.663-1.455c0.98,0.912,0.481,3.041-1.114,4.756       c-1.595,1.715-3.683,2.367-4.663,1.455C130.592,295.848,131.091,293.719,132.686,292.003z"/>
					<path style="fill:#462837;" d="M182.575,253.303c1.305-1.671,3.137-2.421,4.092-1.675c0.955,0.746,0.671,2.705-0.634,4.376       c-1.305,1.671-3.137,2.421-4.092,1.675C180.986,256.932,181.27,254.973,182.575,253.303z"/>
					<path style="fill:#462837;" d="M179.56,328.667c-1.95,0.722-3.864,0.403-4.277-0.711c-0.412-1.114,0.834-2.602,2.783-3.324       s3.864-0.403,4.277,0.711C182.755,326.457,181.509,327.945,179.56,328.667z"/>
					<path style="fill:#462837;" d="M195.097,329.444c-0.868,1.889-2.447,3.018-3.527,2.521c-1.079-0.496-1.25-2.43-0.382-4.318       c0.868-1.889,2.447-3.018,3.527-2.521C195.794,325.622,195.965,327.556,195.097,329.444z"/>
					<path style="fill:#462837;" d="M182.518,309.199c1.889,0.868,3.018,2.447,2.521,3.527c-0.496,1.079-2.43,1.25-4.318,0.382       c-1.889-0.868-3.018-2.447-2.521-3.527C178.696,308.502,180.629,308.331,182.518,309.199z"/>
					<path style="fill:#462837;" d="M225.524,320.097c2.061,0.849,3.339,2.492,2.854,3.669s-2.549,1.445-4.61,0.596       c-2.061-0.849-3.339-2.492-2.854-3.669S223.462,319.249,225.524,320.097z"/>
					<path style="fill:#462837;" d="M287.313,305.462c0.308,2.217-0.469,4.156-1.735,4.332c-1.267,0.176-2.543-1.478-2.852-3.695       c-0.308-2.217,0.469-4.156,1.735-4.332C285.728,301.591,287.005,303.245,287.313,305.462z"/>
					<path style="fill:#462837;" d="M262.17,301.753c2.217-0.308,4.156,0.469,4.332,1.735c0.176,1.267-1.478,2.543-3.695,2.852       c-2.217,0.308-4.156-0.469-4.332-1.735C258.299,303.338,259.954,302.061,262.17,301.753z"/>
					<path style="fill:#462837;" d="M252.199,324.569c1.349-1.785,3.27-2.608,4.291-1.836c1.02,0.771,0.753,2.844-0.596,4.629       c-1.349,1.785-3.27,2.608-4.29,1.836C250.583,328.427,250.85,326.355,252.199,324.569z"/>
					<path style="fill:#462837;" d="M242.989,310.567c-1.785-1.349-2.607-3.27-1.837-4.291c0.771-1.02,2.844-0.753,4.629,0.596       c1.785,1.349,2.607,3.27,1.836,4.291S244.774,311.916,242.989,310.567z"/>
					<path style="fill:#462837;" d="M265.507,269.645c-1.128-1.859-1.182-3.888-0.12-4.533c1.062-0.645,2.838,0.339,3.966,2.198       c1.128,1.859,1.182,3.888,0.12,4.533C268.412,272.488,266.636,271.504,265.507,269.645z"/>
					<path style="fill:#462837;" d="M276.166,280.236c-2.112-0.517-3.585-1.914-3.29-3.121c0.295-1.207,2.247-1.767,4.359-1.25       c2.112,0.517,3.585,1.914,3.29,3.121C280.23,280.193,278.278,280.752,276.166,280.236z"/>
					<path style="fill:#462837;" d="M286.067,254.449c-2.218,0.702-4.341,0.243-4.742-1.024c-0.401-1.267,1.072-2.864,3.29-3.565       c2.218-0.702,4.341-0.243,4.742,1.024C289.758,252.151,288.285,253.748,286.067,254.449z"/>
					<path style="fill:#462837;" d="M276.066,231.629c-0.702-2.218-0.243-4.341,1.024-4.742c1.267-0.401,2.864,1.072,3.565,3.29       c0.702,2.218,0.243,4.341-1.024,4.742C278.364,235.32,276.768,233.847,276.066,231.629z"/>
					<path style="fill:#462837;" d="M202.374,291.787c-2.215-0.083-3.972-1.176-3.924-2.442c0.048-1.266,1.881-2.224,4.096-2.141       c2.215,0.083,3.972,1.176,3.924,2.442C206.423,290.911,204.589,291.87,202.374,291.787z"/>
					<path style="fill:#462837;" d="M249.789,159.902c-1.113,1.587-2.751,2.358-3.658,1.722c-0.907-0.636-0.74-2.438,0.374-4.025       c1.113-1.587,2.751-2.358,3.658-1.722C251.07,156.512,250.902,158.314,249.789,159.902z"/>
					<path style="fill:#462837;" d="M279.778,188.177c1.113-1.587,2.751-2.358,3.658-1.722c0.907,0.636,0.74,2.438-0.374,4.025       c-1.113,1.587-2.751,2.358-3.658,1.722C278.497,191.566,278.664,189.764,279.778,188.177z"/>
				</g>
				<g>
					<path style="fill:#A55F50;" d="M145.509,183.117c1.951-0.252,3.65,0.448,3.794,1.563c0.144,1.115-1.322,2.223-3.273,2.475       c-1.951,0.252-3.65-0.448-3.794-1.563C142.092,184.477,143.558,183.369,145.509,183.117z"/>
					<path style="fill:#A55F50;" d="M168.238,188.514c1.202-1.558,2.898-2.264,3.788-1.577c0.89,0.687,0.638,2.507-0.564,4.064       c-1.202,1.558-2.898,2.264-3.788,1.577C166.783,191.891,167.036,190.071,168.238,188.514z"/>
					<path style="fill:#A55F50;" d="M165.468,163.251c1.202-1.558,2.898-2.264,3.788-1.577c0.89,0.687,0.637,2.507-0.564,4.064       c-1.202,1.558-2.898,2.264-3.788,1.577C164.013,166.629,164.266,164.809,165.468,163.251z"/>
					<path style="fill:#A55F50;" d="M158.684,182.961c-0.252-1.951,0.448-3.65,1.563-3.794c1.115-0.144,2.223,1.321,2.475,3.273       c0.252,1.951-0.448,3.65-1.563,3.794C160.044,186.378,158.936,184.912,158.684,182.961z"/>
					<path style="fill:#A55F50;" d="M167.72,211.514c1.439,1.366,1.973,3.14,1.192,3.962c-0.781,0.822-2.58,0.382-4.019-0.984       c-1.439-1.366-1.973-3.14-1.192-3.962C164.482,209.707,166.281,210.148,167.72,211.514z"/>
					<path style="fill:#A55F50;" d="M138.023,210.608c-1.439-1.366-1.973-3.14-1.192-3.962c0.781-0.822,2.58-0.382,4.019,0.984       c1.439,1.366,1.973,3.14,1.192,3.962C141.261,212.415,139.462,211.974,138.023,210.608z"/>
					<path style="fill:#A55F50;" d="M156.114,255.593c-1.305,1.671-3.137,2.421-4.092,1.675c-0.955-0.746-0.671-2.705,0.634-4.375       c1.305-1.671,3.137-2.421,4.092-1.675C157.703,251.963,157.419,253.922,156.114,255.593z"/>
					<path style="fill:#A55F50;" d="M172.008,241.007c0.259,2.104-0.507,3.93-1.709,4.078c-1.202,0.148-2.387-1.438-2.645-3.542       c-0.259-2.104,0.506-3.93,1.709-4.077C170.565,237.317,171.75,238.903,172.008,241.007z"/>
					<path style="fill:#A55F50;" d="M149.867,224.38c1.671,1.305,2.421,3.137,1.675,4.092c-0.746,0.955-2.705,0.671-4.375-0.634       c-1.671-1.305-2.421-3.137-1.675-4.092C146.237,222.791,148.196,223.075,149.867,224.38z"/>
					<path style="fill:#A55F50;" d="M148.249,237.116c2.104-0.259,3.93,0.507,4.078,1.709c0.148,1.202-1.438,2.387-3.542,2.645       c-2.104,0.259-3.93-0.507-4.078-1.709C144.559,238.559,146.145,237.374,148.249,237.116z"/>
					<path style="fill:#A55F50;" d="M129.821,251.219c1.305-1.671,3.137-2.421,4.092-1.675c0.955,0.746,0.671,2.705-0.634,4.376       c-1.305,1.671-3.137,2.421-4.092,1.675C128.232,254.849,128.516,252.89,129.821,251.219z"/>
					<path style="fill:#A55F50;" d="M169.578,274.849c-1.595,1.715-3.683,2.367-4.663,1.455c-0.98-0.912-0.481-3.041,1.114-4.756       c1.595-1.715,3.683-2.367,4.663-1.455C171.672,271.004,171.173,273.134,169.578,274.849z"/>
					<path style="fill:#A55F50;" d="M161.412,295.141c-1.595,1.715-3.683,2.367-4.663,1.455c-0.98-0.912-0.481-3.041,1.114-4.756       c1.595-1.715,3.683-2.367,4.663-1.455C163.507,291.297,163.008,293.426,161.412,295.141z"/>
					<path style="fill:#A55F50;" d="M127.53,264.407c1.715,1.595,2.367,3.683,1.455,4.663c-0.912,0.98-3.041,0.481-4.756-1.114       c-1.715-1.595-2.367-3.683-1.455-4.663C123.685,262.313,125.815,262.811,127.53,264.407z"/>
					<path style="fill:#A55F50;" d="M140.852,269.829c1.595-1.715,3.683-2.367,4.663-1.455c0.98,0.912,0.481,3.041-1.114,4.756       c-1.595,1.715-3.683,2.367-4.663,1.455C138.758,273.674,139.256,271.544,140.852,269.829z"/>
					<path style="fill:#A55F50;" d="M141.48,304.134c-0.085-2.341,0.931-4.278,2.269-4.326c1.338-0.048,2.491,1.81,2.576,4.151       c0.085,2.341-0.931,4.278-2.269,4.326C142.717,308.333,141.564,306.475,141.48,304.134z"/>
					<path style="fill:#A55F50;" d="M188.212,232.673c1.305-1.671,3.137-2.421,4.092-1.675c0.955,0.746,0.671,2.705-0.634,4.375       c-1.305,1.671-3.137,2.421-4.092,1.675C186.623,236.303,186.907,234.344,188.212,232.673z"/>
					<path style="fill:#A55F50;" d="M182.701,245.176c-1.671-1.305-2.421-3.137-1.675-4.092c0.746-0.955,2.705-0.671,4.375,0.634       c1.671,1.305,2.421,3.137,1.675,4.092C186.331,246.765,184.372,246.481,182.701,245.176z"/>
					<path style="fill:#A55F50;" d="M186.351,283.069c-1.715-1.595-2.367-3.683-1.455-4.663c0.912-0.98,3.041-0.481,4.756,1.114       c1.715,1.595,2.367,3.683,1.455,4.663C190.196,285.163,188.066,284.665,186.351,283.069z"/>
					<path style="fill:#A55F50;" d="M174.136,298.903c1.95-0.721,3.864-0.403,4.277,0.711c0.412,1.114-0.834,2.602-2.783,3.324       s-3.864,0.403-4.277-0.711C170.94,301.112,172.186,299.624,174.136,298.903z"/>
					<path style="fill:#A55F50;" d="M171.178,318.37c-1.889-0.868-3.018-2.447-2.521-3.527c0.496-1.079,2.43-1.25,4.318-0.382       c1.889,0.868,3.018,2.447,2.521,3.527C175,319.068,173.066,319.239,171.178,318.37z"/>
					<path style="fill:#A55F50;" d="M239.004,325.092c-2.058,0.857-4.123,0.599-4.613-0.577c-0.49-1.176,0.781-2.824,2.839-3.681       c2.058-0.857,4.123-0.599,4.613,0.577C242.332,322.586,241.061,324.234,239.004,325.092z"/>
					<path style="fill:#A55F50;" d="M234.695,332.472c0.857,2.058,0.599,4.123-0.577,4.613s-2.824-0.781-3.681-2.839       c-0.857-2.058-0.599-4.123,0.577-4.613C232.19,329.143,233.838,330.414,234.695,332.472z"/>
					<path style="fill:#A55F50;" d="M200.29,330.175c2.058-0.857,4.123-0.599,4.613,0.577c0.49,1.176-0.781,2.824-2.839,3.681       c-2.058,0.857-4.123,0.599-4.613-0.577C196.961,332.681,198.232,331.032,200.29,330.175z"/>
					<path style="fill:#A55F50;" d="M194.011,314.589c0.849-2.061,2.492-3.339,3.669-2.854c1.178,0.485,1.445,2.549,0.596,4.61       c-0.849,2.061-2.492,3.339-3.669,2.854C193.429,318.714,193.162,316.65,194.011,314.589z"/>
					<path style="fill:#A55F50;" d="M276.385,299.254c-1.349,1.785-3.27,2.608-4.291,1.837c-1.02-0.771-0.753-2.844,0.596-4.629       c1.349-1.785,3.27-2.608,4.29-1.836C278.001,295.397,277.734,297.469,276.385,299.254z"/>
					<path style="fill:#A55F50;" d="M270.781,321.123c-1.349,1.785-3.27,2.608-4.291,1.836c-1.02-0.771-0.753-2.844,0.596-4.629       c1.349-1.785,3.27-2.607,4.291-1.836C272.398,317.265,272.131,319.338,270.781,321.123z"/>
					<path style="fill:#A55F50;" d="M248.595,297.278c1.349-1.785,3.27-2.608,4.291-1.836c1.02,0.771,0.753,2.844-0.596,4.629       c-1.349,1.785-3.27,2.607-4.291,1.836C246.979,301.136,247.246,299.063,248.595,297.278z"/>
					<path style="fill:#A55F50;" d="M307.366,277.629c-0.517,2.112-1.914,3.585-3.121,3.29c-1.207-0.295-1.767-2.247-1.25-4.359       c0.517-2.112,1.914-3.585,3.121-3.29C307.323,273.565,307.883,275.517,307.366,277.629z"/>
					<path style="fill:#A55F50;" d="M296.649,275.854c1.128,1.859,1.182,3.888,0.12,4.533s-2.838-0.339-3.966-2.198       c-1.128-1.859-1.182-3.888-0.12-4.533C293.745,273.011,295.521,273.995,296.649,275.854z"/>
					<path style="fill:#A55F50;" d="M298.814,246.557c0.702,2.218,0.243,4.341-1.024,4.742c-1.267,0.401-2.864-1.072-3.565-3.29       c-0.702-2.218-0.243-4.341,1.024-4.742C296.516,242.866,298.113,244.339,298.814,246.557z"/>
					<path style="fill:#A55F50;" d="M290.42,232.848c2.064,1.072,3.241,2.898,2.629,4.077c-0.613,1.18-2.783,1.267-4.847,0.195       c-2.065-1.072-3.241-2.898-2.629-4.077C286.185,231.863,288.355,231.776,290.42,232.848z"/>
					<path style="fill:#A55F50;" d="M296.994,207.396c-0.083,2.215-1.176,3.972-2.442,3.924c-1.266-0.047-2.224-1.881-2.141-4.096       c0.083-2.215,1.176-3.972,2.442-3.924C296.118,203.347,297.077,205.181,296.994,207.396z"/>
					<path style="fill:#A55F50;" d="M273.119,199.428c2.215,0.083,3.972,1.176,3.924,2.442c-0.047,1.266-1.881,2.224-4.096,2.141       c-2.215-0.083-3.972-1.176-3.924-2.442C269.07,200.303,270.904,199.344,273.119,199.428z"/>
					<path style="fill:#A55F50;" d="M216.849,298.595c-1.625-1.507-3.64-1.977-4.501-1.048c-0.861,0.928-0.242,2.903,1.382,4.41       c1.625,1.507,3.64,1.977,4.501,1.048C219.092,302.077,218.474,300.103,216.849,298.595z"/>
					<path style="fill:#A55F50;" d="M266.926,252.069c0.083-2.215,1.176-3.972,2.442-3.924c1.266,0.048,2.224,1.881,2.141,4.096       c-0.083,2.215-1.176,3.972-2.442,3.924C267.801,256.117,266.843,254.283,266.926,252.069z"/>
					<path style="fill:#A55F50;" d="M265.1,170.234c1.587,1.113,2.358,2.751,1.722,3.658c-0.636,0.907-2.438,0.74-4.025-0.374       c-1.587-1.113-2.358-2.751-1.722-3.658C261.71,168.954,263.513,169.121,265.1,170.234z"/>
					<path style="fill:#A55F50;" d="M226.962,150.052c1.976-0.856,3.974-0.635,4.463,0.495s-0.716,2.738-2.692,3.594       c-1.976,0.856-3.974,0.635-4.463-0.495S224.987,150.908,226.962,150.052z"/>
					<path style="fill:#A55F50;" d="M197.05,154.295c0.792-2.003,2.362-3.259,3.506-2.806c1.144,0.452,1.43,2.443,0.638,4.445       c-0.792,2.002-2.362,3.259-3.506,2.806C196.544,158.288,196.258,156.298,197.05,154.295z"/>
				</g>
				<g>
					<path style="fill:#FFE48D;" d="M207.495,159.993c-1.202,1.558-2.898,2.264-3.788,1.577c-0.89-0.687-0.638-2.507,0.564-4.064       c1.202-1.558,2.898-2.264,3.788-1.577C208.95,156.616,208.697,158.436,207.495,159.993z"/>
					<path style="fill:#FFE48D;" d="M168.31,180.97c-1.558-1.202-2.264-2.898-1.577-3.788c0.687-0.89,2.506-0.638,4.064,0.564       c1.558,1.202,2.264,2.898,1.577,3.788C171.687,182.425,169.867,182.172,168.31,180.97z"/>
					<path style="fill:#FFE48D;" d="M168.569,203.954c-1.366,1.439-3.14,1.973-3.962,1.192c-0.822-0.781-0.382-2.58,0.984-4.019       c1.366-1.439,3.14-1.973,3.962-1.192C170.375,200.716,169.935,202.515,168.569,203.954z"/>
					<path style="fill:#FFE48D;" d="M163.175,222.666c-1.366,1.439-3.14,1.973-3.962,1.192c-0.822-0.781-0.382-2.58,0.984-4.019       c1.366-1.439,3.14-1.973,3.962-1.192C164.981,219.427,164.541,221.227,163.175,222.666z"/>
					<path style="fill:#FFE48D;" d="M155.797,204.745c1.983-0.052,3.615,0.825,3.645,1.959c0.03,1.133-1.554,2.094-3.538,2.146       c-1.984,0.052-3.615-0.825-3.645-1.959C152.229,205.758,153.813,204.797,155.797,204.745z"/>
					<path style="fill:#FFE48D;" d="M144.281,199.456c1.366-1.439,3.14-1.973,3.962-1.192c0.822,0.781,0.382,2.58-0.984,4.019       s-3.14,1.973-3.962,1.192C142.474,202.695,142.915,200.895,144.281,199.456z"/>
					<path style="fill:#FFE48D;" d="M128.162,211.614c-0.052-1.984,0.825-3.615,1.959-3.645c1.133-0.03,2.094,1.555,2.146,3.538       c0.052,1.984-0.825,3.615-1.959,3.645C129.174,215.182,128.213,213.598,128.162,211.614z"/>
					<path style="fill:#FFE48D;" d="M161.751,234.963c-1.305,1.671-3.137,2.421-4.092,1.675c-0.955-0.746-0.671-2.705,0.634-4.375       c1.305-1.671,3.137-2.421,4.092-1.675C163.34,231.334,163.056,233.293,161.751,234.963z"/>
					<path style="fill:#FFE48D;" d="M135.458,232.673c1.305-1.671,3.137-2.421,4.092-1.675c0.955,0.746,0.671,2.705-0.634,4.375       c-1.305,1.671-3.137,2.421-4.092,1.675C133.869,236.303,134.153,234.344,135.458,232.673z"/>
					<path style="fill:#FFE48D;" d="M139.087,260.273c0.341-2.092,1.587-3.63,2.783-3.435c1.196,0.195,1.888,2.049,1.547,4.142       c-0.341,2.092-1.587,3.63-2.783,3.435C139.439,264.22,138.746,262.365,139.087,260.273z"/>
					<path style="fill:#FFE48D;" d="M119.564,247.258c-0.259-2.104,0.507-3.93,1.709-4.078c1.202-0.148,2.387,1.438,2.645,3.542       c0.259,2.104-0.507,3.93-1.709,4.077S119.822,249.363,119.564,247.258z"/>
					<path style="fill:#FFE48D;" d="M143.323,251.15c-2.104,0.259-3.93-0.506-4.078-1.709c-0.148-1.202,1.438-2.387,3.542-2.645       c2.104-0.259,3.93,0.507,4.078,1.709C147.013,249.707,145.427,250.891,143.323,251.15z"/>
					<path style="fill:#FFE48D;" d="M161.412,265.309c-1.595,1.715-3.683,2.367-4.663,1.455c-0.98-0.912-0.481-3.041,1.114-4.756       c1.595-1.715,3.683-2.367,4.663-1.455C163.507,261.464,163.008,263.594,161.412,265.309z"/>
					<path style="fill:#FFE48D;" d="M202.103,300.151c0.085,2.341-0.931,4.278-2.269,4.326c-1.338,0.048-2.491-1.81-2.576-4.151       c-0.085-2.341,0.931-4.278,2.269-4.326C200.865,295.952,202.018,297.81,202.103,300.151z"/>
					<path style="fill:#FFE48D;" d="M154.51,275.935c2.341-0.085,4.278,0.931,4.326,2.269c0.048,1.338-1.81,2.491-4.151,2.576       c-2.341,0.085-4.278-0.931-4.326-2.269C150.311,277.173,152.169,276.02,154.51,275.935z"/>
					<path style="fill:#FFE48D;" d="M176.211,228.882c-0.085-2.341,0.931-4.278,2.269-4.326c1.338-0.048,2.491,1.81,2.576,4.151       c0.085,2.341-0.931,4.278-2.269,4.326C177.449,233.081,176.296,231.223,176.211,228.882z"/>
					<path style="fill:#FFE48D;" d="M133.597,283.069c-1.715-1.595-2.367-3.683-1.455-4.663c0.912-0.98,3.041-0.481,4.756,1.114       c1.715,1.595,2.367,3.683,1.455,4.663C137.442,285.163,135.313,284.665,133.597,283.069z"/>
					<path style="fill:#FFE48D;" d="M167.654,254.51c-0.259-2.104,0.506-3.93,1.709-4.078c1.202-0.148,2.387,1.438,2.645,3.542       c0.259,2.104-0.507,3.93-1.709,4.078C169.097,258.2,167.913,256.614,167.654,254.51z"/>
					<path style="fill:#FFE48D;" d="M180.284,264.407c1.715,1.595,2.367,3.683,1.455,4.663c-0.912,0.98-3.041,0.481-4.756-1.114       c-1.715-1.595-2.367-3.683-1.455-4.663C176.439,262.313,178.569,262.811,180.284,264.407z"/>
					<path style="fill:#FFE48D;" d="M174.722,284.375c-0.085-2.341,0.931-4.278,2.269-4.326c1.338-0.048,2.491,1.81,2.576,4.151       c0.085,2.341-0.931,4.278-2.269,4.326C175.96,288.574,174.807,286.716,174.722,284.375z"/>
					<path style="fill:#FFE48D;" d="M147.754,290.917c-2.341,0.085-4.278-0.931-4.326-2.269c-0.048-1.338,1.81-2.491,4.151-2.576       c2.341-0.085,4.278,0.931,4.326,2.269C151.954,289.679,150.095,290.832,147.754,290.917z"/>
					<path style="fill:#FFE48D;" d="M190.569,300.691c-1.95,0.722-3.864,0.403-4.276-0.711c-0.412-1.114,0.834-2.602,2.783-3.324       s3.864-0.403,4.277,0.711C193.764,298.482,192.518,299.97,190.569,300.691z"/>
					<path style="fill:#FFE48D;" d="M190.599,321.075c0.721,1.95,0.403,3.864-0.711,4.277c-1.114,0.412-2.602-0.834-3.324-2.784       c-0.721-1.95-0.403-3.864,0.711-4.277C188.389,317.879,189.877,319.126,190.599,321.075z"/>
					<path style="fill:#FFE48D;" d="M158.804,313.21c1.95-0.721,3.864-0.403,4.276,0.711c0.412,1.114-0.834,2.602-2.783,3.324       s-3.864,0.403-4.277-0.711C155.608,315.419,156.855,313.931,158.804,313.21z"/>
					<path style="fill:#FFE48D;" d="M153.36,302.882c0.868-1.889,2.447-3.018,3.527-2.521c1.079,0.496,1.25,2.43,0.382,4.318       c-0.868,1.889-2.447,3.018-3.527,2.521C152.663,306.704,152.492,304.771,153.36,302.882z"/>
					<path style="fill:#FFE48D;" d="M163.097,306.495c-0.721-1.95-0.403-3.864,0.711-4.277c1.114-0.412,2.602,0.834,3.324,2.784       c0.722,1.95,0.403,3.864-0.711,4.277C165.306,309.69,163.818,308.444,163.097,306.495z"/>
					<path style="fill:#FFE48D;" d="M223.195,341.083c-2.058,0.857-4.123,0.599-4.613-0.577c-0.49-1.176,0.781-2.824,2.839-3.681       c2.058-0.857,4.123-0.599,4.613,0.577C226.524,338.577,225.253,340.225,223.195,341.083z"/>
					<path style="fill:#FFE48D;" d="M245.282,335.922c-0.849,2.061-2.492,3.339-3.669,2.854c-1.178-0.485-1.445-2.549-0.596-4.61       c0.849-2.061,2.492-3.339,3.669-2.854C245.864,331.797,246.131,333.861,245.282,335.922z"/>
					<path style="fill:#FFE48D;" d="M216.098,309.427c2.058-0.857,4.123-0.599,4.613,0.577c0.49,1.176-0.781,2.824-2.839,3.681       c-2.058,0.857-4.123,0.599-4.613-0.577C212.769,311.933,214.04,310.285,216.098,309.427z"/>
					<path style="fill:#FFE48D;" d="M204.598,318.038c-0.857-2.058-0.599-4.123,0.577-4.613c1.176-0.49,2.824,0.781,3.681,2.839       c0.857,2.058,0.599,4.123-0.577,4.613C207.104,321.367,205.456,320.096,204.598,318.038z"/>
					<path style="fill:#FFE48D;" d="M213.77,330.413c-2.061-0.849-3.339-2.492-2.854-3.669s2.549-1.444,4.61-0.596       c2.061,0.849,3.339,2.492,2.854,3.669S215.831,331.262,213.77,330.413z"/>
					<path style="fill:#FFE48D;" d="M266.718,291.473c0.308,2.217-0.469,4.156-1.735,4.333c-1.267,0.176-2.543-1.478-2.852-3.695       c-0.308-2.217,0.469-4.156,1.735-4.332C265.133,287.602,266.41,289.256,266.718,291.473z"/>
					<path style="fill:#FFE48D;" d="M276.388,307.834c1.785,1.349,2.608,3.27,1.836,4.291c-0.771,1.02-2.844,0.753-4.629-0.596       c-1.785-1.349-2.608-3.27-1.837-4.291C272.53,306.218,274.603,306.485,276.388,307.834z"/>
					<path style="fill:#FFE48D;" d="M232.063,312.939c-0.308-2.217,0.469-4.156,1.735-4.332c1.267-0.176,2.543,1.478,2.852,3.695       c0.308,2.217-0.469,4.156-1.735,4.332C233.648,316.81,232.372,315.156,232.063,312.939z"/>
					<path style="fill:#FFE48D;" d="M257.207,316.648c-2.217,0.308-4.156-0.469-4.332-1.735c-0.176-1.267,1.478-2.543,3.695-2.852       c2.217-0.308,4.156,0.469,4.332,1.735C261.077,315.063,259.423,316.34,257.207,316.648z"/>
					<path style="fill:#FFE48D;" d="M299.723,268.105c-1.859,1.128-3.888,1.182-4.533,0.12c-0.645-1.062,0.339-2.838,2.198-3.966       c1.859-1.128,3.888-1.182,4.533-0.12C302.566,265.201,301.582,266.976,299.723,268.105z"/>
					<path style="fill:#FFE48D;" d="M286.82,285.844c-1.859,1.128-3.888,1.182-4.533,0.12c-0.645-1.062,0.339-2.838,2.198-3.966       c1.859-1.128,3.888-1.182,4.533-0.12C289.664,282.94,288.679,284.716,286.82,285.844z"/>
					<path style="fill:#FFE48D;" d="M285.99,265.263c2.112,0.516,3.585,1.914,3.29,3.121c-0.295,1.207-2.247,1.767-4.359,1.25       c-2.112-0.517-3.585-1.914-3.29-3.121C281.927,265.306,283.878,264.747,285.99,265.263z"/>
					<path style="fill:#FFE48D;" d="M262.433,277.394c1.859-1.128,3.888-1.182,4.533-0.12s-0.339,2.838-2.198,3.966       c-1.859,1.128-3.888,1.182-4.533,0.12C259.59,280.298,260.575,278.523,262.433,277.394z"/>
					<path style="fill:#FFE48D;" d="M275.336,259.655c1.859-1.128,3.888-1.182,4.533-0.12c0.645,1.062-0.339,2.838-2.198,3.966       c-1.859,1.128-3.888,1.182-4.533,0.12C272.493,262.559,273.477,260.783,275.336,259.655z"/>
					<path style="fill:#FFE48D;" d="M254.791,267.87c0.517-2.112,1.914-3.585,3.121-3.29c1.207,0.295,1.767,2.247,1.25,4.359       c-0.517,2.112-1.914,3.585-3.121,3.29C254.834,271.934,254.274,269.982,254.791,267.87z"/>
					<path style="fill:#FFE48D;" d="M302.515,228.404c-2.218,0.702-4.341,0.243-4.742-1.024c-0.401-1.267,1.072-2.864,3.29-3.565       c2.218-0.702,4.341-0.243,4.742,1.024C306.206,226.106,304.733,227.702,302.515,228.404z"/>
					<path style="fill:#FFE48D;" d="M309.503,251.118c-1.072,2.064-2.898,3.242-4.077,2.629c-1.18-0.613-1.267-2.783-0.195-4.847       c1.072-2.064,2.898-3.241,4.077-2.629C310.488,246.883,310.575,249.054,309.503,251.118z"/>
					<path style="fill:#FFE48D;" d="M263.698,236.056c2.218-0.702,4.341-0.243,4.742,1.024c0.401,1.267-1.072,2.864-3.29,3.565       c-2.218,0.702-4.341,0.243-4.742-1.024C260.007,238.354,261.48,236.758,263.698,236.056z"/>
					<path style="fill:#FFE48D;" d="M289.283,218.958c2.218-0.702,4.341-0.243,4.742,1.024c0.401,1.267-1.072,2.864-3.29,3.565       c-2.218,0.702-4.341,0.243-4.742-1.024C285.592,221.256,287.065,219.659,289.283,218.958z"/>
					<path style="fill:#FFE48D;" d="M237.847,292.545c1.072-2.065,2.898-3.241,4.077-2.629c1.18,0.613,1.267,2.783,0.195,4.847       c-1.072,2.065-2.898,3.242-4.077,2.629C236.862,296.78,236.775,294.609,237.847,292.545z"/>
					<path style="fill:#FFE48D;" d="M277.251,242.49c-2.064-1.072-3.241-2.898-2.629-4.077c0.613-1.18,2.783-1.267,4.847-0.195       c2.064,1.072,3.241,2.898,2.629,4.077C281.486,243.475,279.316,243.562,277.251,242.49z"/>
					<path style="fill:#FFE48D;" d="M287.412,199.452c-1.625,1.507-3.64,1.977-4.502,1.048c-0.861-0.928-0.242-2.903,1.382-4.41       c1.625-1.507,3.64-1.977,4.502-1.048C289.656,195.97,289.037,197.944,287.412,199.452z"/>
					<path style="fill:#FFE48D;" d="M276.801,218.28c-1.625,1.507-3.64,1.977-4.502,1.048c-0.861-0.928-0.242-2.903,1.382-4.41       c1.625-1.507,3.64-1.977,4.502-1.048C279.044,214.798,278.426,216.772,276.801,218.28z"/>
					<path style="fill:#FFE48D;" d="M285.93,207.818c1.507,1.625,1.977,3.64,1.048,4.501c-0.928,0.861-2.903,0.243-4.41-1.382       c-1.507-1.625-1.977-3.64-1.048-4.501C282.448,205.574,284.423,206.193,285.93,207.818z"/>
					<path style="fill:#FFE48D;" d="M299.812,236.06c2.215,0.083,3.972,1.176,3.924,2.442c-0.047,1.266-1.881,2.224-4.096,2.141       c-2.215-0.083-3.972-1.176-3.924-2.442C295.763,236.935,297.597,235.977,299.812,236.06z"/>
					<path style="fill:#FFE48D;" d="M294.013,294.806c-1.113,1.587-2.751,2.358-3.658,1.722c-0.907-0.636-0.74-2.439,0.374-4.026       c1.113-1.587,2.751-2.358,3.658-1.722C295.294,291.417,295.126,293.219,294.013,294.806z"/>
					<path style="fill:#FFE48D;" d="M275.008,183.1c0.335,1.909-0.278,3.613-1.369,3.804c-1.091,0.191-2.247-1.201-2.582-3.111       c-0.335-1.909,0.278-3.613,1.369-3.804C273.517,179.797,274.673,181.19,275.008,183.1z"/>
					<path style="fill:#FFE48D;" d="M212.835,156.918c-0.856-1.976-0.635-3.974,0.495-4.463c1.129-0.489,2.738,0.716,3.594,2.692       c0.856,1.976,0.634,3.974-0.495,4.463C215.3,160.099,213.691,158.894,212.835,156.918z"/>
				</g>
			</g>
			<g>
				<path style="fill:#E06879;" d="M238.471,197.84c0,0-2.803-1.31-11.43-1.31c-11.875,0-17.253,1.31-17.253,1.31      s1.022,21.519,17.253,17.549C235.74,213.261,238.471,197.84,238.471,197.84z"/>
				<path style="opacity:0.75;fill:#FAFAFA;" d="M235.064,207.813c-9.591-6.261-21.363-5.266-24.484-4.853      c1.442,6.091,5.451,15.122,16.46,12.429C230.688,214.496,233.276,211.263,235.064,207.813z"/>
				<g>
					
						<path style="fill:none;stroke:#462837;stroke-width:1.6;stroke-linecap:round;stroke-linejoin:round;stroke-miterlimit:10;" d="       M238.471,197.84c0,0-2.803-1.31-11.43-1.31c-11.875,0-17.253,1.31-17.253,1.31s1.022,21.519,17.253,17.549       C235.74,213.261,238.471,197.84,238.471,197.84z"/>
					
						<path style="fill:none;stroke:#462837;stroke-width:0.8;stroke-linecap:round;stroke-linejoin:round;stroke-miterlimit:10;" d="       M235.064,207.813c-9.591-6.261-21.363-5.266-24.484-4.853"/>
				</g>
				<path style="fill:#462837;" d="M183.377,182.336c0,5.36,3.65,8.95,8.152,8.95c4.502,0,8.152-3.59,8.152-8.95      c0-5.36-3.65-10.46-8.152-10.46C187.026,171.876,183.377,176.976,183.377,182.336z"/>
				<ellipse style="fill:#E06879;" cx="185.598" cy="199.919" rx="9.705" ry="8.627"/>
				<path style="fill:#462837;" d="M243.338,182.336c0,5.36,2.92,8.95,6.522,8.95s6.522-3.59,6.522-8.95      c0-5.36-2.92-10.46-6.522-10.46S243.338,176.976,243.338,182.336z"/>
				<ellipse style="fill:#E06879;" cx="254.605" cy="199.913" rx="7.764" ry="8.627"/>
			</g>
			<g>
				<g>
					<path style="fill:#FAFAFA;" d="M118.749,191.771c-11.323,18.104-16.609,37.578-18.691,58.681c-0.092,0.918-1.502,0.945-1.597,0       c-1.673-16.005,1.642-32.633,9.504-46.699c2.638-4.698,5.796-9.106,9.52-12.956       C118.127,190.129,119.246,190.961,118.749,191.771L118.749,191.771z"/>
				</g>
				<circle style="fill:#FAFAFA;" cx="99.571" cy="256.862" r="2.619"/>
			</g>
			<g>
				<g>
					<path style="fill:#462837;" d="M237.44,268.018c-4.644,8.463-14.054,12.581-22.25,6.055       c-10.028-8.75-11.492-24.41-7.308-36.437c5.314-15.055,20.688-19.968,29.557-4.75c0.303,0.548-0.495,1.005-0.82,0.483       c-8.657-14.018-22.359-9.229-27.289,4.795c-3.882,11.484-2.634,26.303,6.773,34.782c7.408,6.101,16.087,2.236,20.516-5.411       C236.933,267,237.747,267.487,237.44,268.018L237.44,268.018z"/>
				</g>
				<path style="fill:none;stroke:#462837;stroke-width:1.6;stroke-linecap:round;stroke-linejoin:round;stroke-miterlimit:10;" d="      M219.567,275.786c7.527-2.912,13.096-13.133,13.096-25.333c0-12.2-5.569-22.422-13.096-25.334"/>
				<path style="fill:none;stroke:#462837;stroke-width:1.6;stroke-linecap:round;stroke-linejoin:round;stroke-miterlimit:10;" d="      M266.278,159.731c-20.941-12.02-41.655-17.698-68.101-16.667C130.983,145.683,88.17,189.696,88.17,250.451      c0,60.755,42.813,104.77,110.007,107.389c26.445,1.031,47.16-4.647,68.101-16.667c31.282-17.956,52.383-51.946,52.383-90.72      C318.661,211.679,297.561,177.687,266.278,159.731z"/>
			</g>
			<g>
				<g>
					<g>
						<path style="fill:#462837;" d="M247.584,353.314c1.595,10.817,5.715,20.569,3.688,32.123        c-1.731,10.711-12.177,17.183-22.466,17.814c-9.867,0.794-18.834-1.898-28.002-3.806c-0.993-0.152-2.456-0.491-3.163-0.402        c-4.479,3.248-10.744,2.25-13.992-2.229c-4.886-6.61,0.192-16.171,8.331-15.898c0,0,5.661,0.127,5.661,0.127        c7.649,0.424,14.591,3.712,21.765,5.044c5.151,1.142,15.6,2.319,17.034-3.816c1.626-7.963-1.434-17.471-2.361-25.8        c-0.106-1.073-0.227-2.163-0.148-3.794c0.181-3.75,3.367-6.644,7.118-6.463C244.882,346.377,247.578,349.646,247.584,353.314        L247.584,353.314z"/>
					</g>
					<g style="opacity:0.25;">
						<path style="fill:#462837;" d="M247.584,353.314c1.595,10.817,5.715,20.569,3.688,32.123        c-1.731,10.711-12.177,17.183-22.466,17.814c-9.867,0.794-18.834-1.898-28.002-3.806c-0.993-0.152-2.456-0.491-3.163-0.402        c-4.479,3.248-10.744,2.25-13.992-2.229c-4.886-6.61,0.192-16.171,8.331-15.898c0,0,5.661,0.127,5.661,0.127        c7.649,0.424,14.591,3.712,21.765,5.044c5.151,1.142,15.6,2.319,17.034-3.816c1.626-7.963-1.434-17.471-2.361-25.8        c-0.106-1.073-0.227-2.163-0.148-3.794c0.181-3.75,3.367-6.644,7.118-6.463C244.882,346.377,247.578,349.646,247.584,353.314        L247.584,353.314z"/>
					</g>
					<g>
						<path style="fill:#462837;" d="M263.227,217.657c19.654-5.469,39.557-9.312,59.844-11.484        c6.768-0.752,13.615-1.133,20.493-1.39c4.97-0.186,9.149,3.693,9.335,8.663c0.217,5.208-4.132,9.544-9.335,9.337        c-6.361-0.104-12.76-0.107-19.19,0.257c-12.902,0.635-25.823,2.113-38.605,4.18c-6.357,1.049-12.932,2.261-19.153,3.674        C257.969,232.574,254.834,220.358,263.227,217.657L263.227,217.657z"/>
					</g>
					<g style="opacity:0.25;">
						<path style="fill:#462837;" d="M263.227,217.657c19.654-5.469,39.557-9.312,59.844-11.484        c6.768-0.752,13.615-1.133,20.493-1.39c4.97-0.186,9.149,3.693,9.335,8.663c0.217,5.208-4.132,9.544-9.335,9.337        c-6.361-0.104-12.76-0.107-19.19,0.257c-12.902,0.635-25.823,2.113-38.605,4.18c-6.357,1.049-12.932,2.261-19.153,3.674        C257.969,232.574,254.834,220.358,263.227,217.657L263.227,217.657z"/>
					</g>
				</g>
				<g>
					<path style="fill:#462837;" d="M169.172,217.589c31.48-7.211,63.454-11.875,95.774-12.806c4.97-0.157,9.127,3.744,9.285,8.714       c0.183,5.172-4.117,9.462-9.285,9.286c-7.703-0.103-15.436-0.108-23.196,0.26c-15.553,0.637-31.122,2.117-46.572,4.202       c-7.692,1.059-15.573,2.269-23.147,3.706C163.297,232.33,160.624,219.93,169.172,217.589L169.172,217.589z"/>
				</g>
				<g>
					<path style="fill:#462837;" d="M200.471,352.921c1.581,10.83,5.636,20.631,3.746,32.18       c-1.592,10.823-11.955,17.441-22.34,18.133c-9.928,0.845-18.943-1.865-28.165-3.785c-0.998-0.152-2.472-0.495-3.184-0.406       c-4.479,3.25-10.744,2.254-13.994-2.225c-4.889-6.611,0.189-16.176,8.331-15.902c0,0,5.664,0.128,5.664,0.128       c7.677,0.427,14.646,3.734,21.848,5.061c5.195,1.128,15.636,2.325,16.977-3.977c1.56-8.076-1.45-17.621-2.388-26.043       c-0.105-1.075-0.226-2.161-0.148-3.8c0.179-3.751,3.366-6.647,7.118-6.468C197.767,345.98,200.475,349.249,200.471,352.921       L200.471,352.921z"/>
				</g>
			</g>
		</g>
	</g>
	<g>
		<path style="fill:#462837;" d="M394.01,111.436c-1.715,1.595-2.367,3.683-1.455,4.663c0.912,0.98,3.041,0.481,4.756-1.114    c1.715-1.595,2.367-3.683,1.455-4.663C397.855,109.342,395.726,109.841,394.01,111.436z"/>
		<path style="fill:#462837;" d="M359.569,94.73c-1.595-1.715-3.683-2.367-4.663-1.455c-0.98,0.912-0.481,3.041,1.114,4.756    c1.595,1.715,3.683,2.367,4.663,1.455C361.663,98.575,361.165,96.446,359.569,94.73z"/>
		<path style="fill:#462837;" d="M386.555,183.687c1.95,0.721,3.864,0.403,4.277-0.711c0.412-1.114-0.834-2.602-2.784-3.324    c-1.95-0.722-3.864-0.403-4.276,0.711C383.36,181.477,384.606,182.965,386.555,183.687z"/>
		<path style="fill:#462837;" d="M366.843,184.656c0.868,1.889,2.447,3.018,3.526,2.521c1.079-0.496,1.25-2.43,0.382-4.318    c-0.868-1.889-2.447-3.018-3.527-2.521C366.145,180.834,365.974,182.767,366.843,184.656z"/>
		<path style="fill:#462837;" d="M375.905,150.142c-1.889,0.868-3.018,2.447-2.521,3.526c0.496,1.079,2.43,1.25,4.318,0.382    c1.889-0.868,3.018-2.447,2.521-3.527S377.794,149.274,375.905,150.142z"/>
		<path style="fill:#462837;" d="M344.624,176.022c-2.061,0.849-3.339,2.492-2.854,3.669c0.485,1.178,2.549,1.445,4.61,0.596    c2.061-0.849,3.339-2.492,2.854-3.67C348.749,175.44,346.685,175.173,344.624,176.022z"/>
		<path style="fill:#462837;" d="M278.723,161.29c-0.308,2.217,0.469,4.156,1.735,4.333c1.267,0.176,2.543-1.478,2.852-3.695    c0.308-2.217-0.469-4.156-1.735-4.333C280.308,157.42,279.031,159.074,278.723,161.29z"/>
		<path style="fill:#462837;" d="M308.833,155.406c-2.217-0.308-4.156,0.469-4.332,1.735c-0.176,1.267,1.478,2.543,3.695,2.852    c2.217,0.308,4.156-0.469,4.332-1.735C312.704,156.991,311.05,155.714,308.833,155.406z"/>
		<path style="fill:#462837;" d="M316.228,187.933c-1.349-1.785-3.27-2.607-4.29-1.836c-1.02,0.771-0.753,2.843,0.596,4.629    c1.349,1.785,3.27,2.608,4.29,1.837C317.844,191.791,317.578,189.718,316.228,187.933z"/>
		<path style="fill:#462837;" d="M327.159,160.987c1.785-1.349,2.608-3.27,1.836-4.29c-0.771-1.02-2.844-0.753-4.629,0.596    c-1.785,1.349-2.608,3.27-1.837,4.29C323.301,162.603,325.373,162.336,327.159,160.987z"/>
		<path style="fill:#462837;" d="M308.47,104.377c1.128-1.859,1.182-3.888,0.12-4.533s-2.838,0.339-3.966,2.198    c-1.128,1.859-1.182,3.888-0.12,4.533C305.565,107.22,307.341,106.236,308.47,104.377z"/>
		<path style="fill:#462837;" d="M293.981,87.129c2.112-0.517,3.585-1.914,3.29-3.121c-0.295-1.207-2.247-1.767-4.359-1.25    c-2.112,0.517-3.585,1.914-3.29,3.121C289.917,87.086,291.869,87.645,293.981,87.129z"/>
		<path style="fill:#462837;" d="M365.363,132.845c2.215-0.083,3.972-1.176,3.924-2.442c-0.047-1.266-1.881-2.224-4.096-2.141    c-2.215,0.083-3.972,1.176-3.924,2.442C361.314,131.969,363.148,132.928,365.363,132.845z"/>
		<path style="fill:#A55F50;" d="M331.947,127.466c1.595,1.715,3.683,2.367,4.663,1.455c0.98-0.912,0.481-3.041-1.114-4.756    s-3.683-2.367-4.663-1.455C329.853,123.622,330.351,125.751,331.947,127.466z"/>
		<path style="fill:#A55F50;" d="M388.878,138.548c1.595,1.715,3.683,2.367,4.663,1.455c0.98-0.912,0.481-3.041-1.114-4.756    c-1.595-1.715-3.683-2.367-4.663-1.455C386.784,134.703,387.283,136.832,388.878,138.548z"/>
		<path style="fill:#A55F50;" d="M376.777,102.935c-1.715,1.595-2.367,3.683-1.455,4.663c0.912,0.98,3.041,0.481,4.756-1.114    c1.715-1.595,2.367-3.683,1.455-4.663C380.621,100.841,378.492,101.34,376.777,102.935z"/>
		<path style="fill:#A55F50;" d="M346.223,142.423c-1.595-1.715-3.683-2.367-4.663-1.455c-0.98,0.912-0.481,3.041,1.114,4.756    c1.595,1.715,3.683,2.367,4.663,1.455C348.317,146.268,347.818,144.139,346.223,142.423z"/>
		<path style="fill:#A55F50;" d="M350.776,106.861c0.085-2.341-0.931-4.278-2.269-4.326c-1.338-0.048-2.491,1.81-2.576,4.151    c-0.085,2.341,0.931,4.278,2.269,4.326C349.538,111.06,350.691,109.202,350.776,106.861z"/>
		<path style="fill:#A55F50;" d="M324.897,102.153c1.715-1.595,2.367-3.683,1.455-4.663c-0.912-0.98-3.041-0.481-4.756,1.114    c-1.715,1.595-2.367,3.683-1.455,4.663C321.053,104.247,323.182,103.749,324.897,102.153z"/>
		<path style="fill:#A55F50;" d="M320.451,78.013c-1.95-0.722-3.864-0.403-4.277,0.711c-0.412,1.114,0.834,2.602,2.784,3.324    c1.95,0.721,3.864,0.403,4.276-0.711C323.647,80.223,322.401,78.734,320.451,78.013z"/>
		<path style="fill:#A55F50;" d="M396.56,164.513c1.889-0.868,3.018-2.447,2.521-3.527c-0.496-1.079-2.43-1.25-4.318-0.382    c-1.889,0.868-3.018,2.447-2.521,3.527C392.738,165.21,394.671,165.381,396.56,164.513z"/>
		<path style="fill:#A55F50;" d="M327.635,177.498c2.058,0.857,4.123,0.599,4.613-0.577c0.49-1.176-0.781-2.824-2.839-3.681    c-2.058-0.857-4.123-0.599-4.613,0.577S325.577,176.641,327.635,177.498z"/>
		<path style="fill:#A55F50;" d="M335.452,207.149c-0.857,2.058-0.599,4.123,0.577,4.613s2.824-0.781,3.681-2.839    c0.857-2.058,0.599-4.123-0.577-4.613C337.958,203.821,336.31,205.092,335.452,207.149z"/>
		<path style="fill:#A55F50;" d="M367.447,219.35c-2.058-0.857-4.123-0.599-4.613,0.577c-0.49,1.176,0.781,2.824,2.839,3.681    c2.058,0.857,4.123,0.599,4.613-0.577C370.776,221.855,369.505,220.207,367.447,219.35z"/>
		<path style="fill:#A55F50;" d="M373.726,165.835c-0.849-2.061-2.492-3.339-3.669-2.854c-1.178,0.485-1.445,2.549-0.596,4.61    c0.849,2.061,2.492,3.339,3.669,2.854C374.308,169.96,374.575,167.896,373.726,165.835z"/>
		<path style="fill:#A55F50;" d="M293.762,149.674c1.349,1.785,3.27,2.607,4.291,1.836c1.02-0.771,0.753-2.843-0.596-4.629    c-1.349-1.785-3.27-2.607-4.291-1.837C292.146,145.817,292.413,147.889,293.762,149.674z"/>
		<path style="fill:#A55F50;" d="M299.508,179.759c0.387,2.204,1.721,3.812,2.981,3.591c1.26-0.221,1.967-2.187,1.58-4.391    c-0.387-2.204-1.721-3.812-2.981-3.591C299.829,175.588,299.122,177.554,299.508,179.759z"/>
		<path style="fill:#A55F50;" d="M320.672,140.816c-1.349-1.785-3.27-2.608-4.29-1.837s-0.753,2.843,0.596,4.629    c1.349,1.785,3.27,2.608,4.29,1.837C322.288,144.673,322.021,142.601,320.672,140.816z"/>
		<path style="fill:#A55F50;" d="M257.622,128.049c0.516,2.112,1.914,3.585,3.121,3.29c1.207-0.295,1.767-2.247,1.25-4.359    c-0.517-2.112-1.914-3.585-3.121-3.29C257.665,123.986,257.106,125.937,257.622,128.049z"/>
		<path style="fill:#A55F50;" d="M275.414,73.822c-1.128,1.859-1.182,3.888-0.12,4.533c1.062,0.645,2.838-0.339,3.966-2.198    c1.128-1.859,1.182-3.888,0.12-4.533C278.318,70.978,276.542,71.963,275.414,73.822z"/>
		<path style="fill:#A55F50;" d="M350.125,130.781c1.625-1.507,3.64-1.977,4.502-1.048c0.861,0.928,0.242,2.903-1.382,4.41    c-1.625,1.507-3.64,1.977-4.501,1.048C347.881,134.263,348.5,132.289,350.125,130.781z"/>
		<path style="fill:#FFE48D;" d="M365.634,141.21c-0.085,2.341,0.931,4.278,2.269,4.326c1.338,0.048,2.491-1.81,2.576-4.151    c0.085-2.341-0.931-4.278-2.269-4.326C366.872,137.01,365.719,138.869,365.634,141.21z"/>
		<path style="fill:#FFE48D;" d="M358.658,67.702c1.715-1.595,2.367-3.683,1.455-4.663c-0.912-0.98-3.041-0.481-4.756,1.114    c-1.715,1.595-2.367,3.683-1.455,4.663C354.813,69.796,356.943,69.298,358.658,67.702z"/>
		<path style="fill:#FFE48D;" d="M319.545,125.029c-1.715,1.595-2.367,3.683-1.455,4.663c0.912,0.98,3.041,0.481,4.756-1.114    c1.715-1.595,2.367-3.683,1.455-4.663C323.389,122.935,321.26,123.434,319.545,125.029z"/>
		<path style="fill:#FFE48D;" d="M383.102,142.253c-1.76-1.546-3.903-1.984-4.786-0.978c-0.883,1.006-0.173,3.074,1.587,4.62    c1.76,1.546,3.903,1.984,4.786,0.978C385.572,145.868,384.862,143.799,383.102,142.253z"/>
		<path style="fill:#FFE48D;" d="M344.501,93.644c2.341,0.085,4.278-0.931,4.326-2.269c0.048-1.338-1.81-2.491-4.151-2.576    c-2.341-0.085-4.278,0.931-4.326,2.269S342.16,93.559,344.501,93.644z"/>
		<path style="fill:#FFE48D;" d="M360.439,122.764c1.95,0.722,3.864,0.403,4.277-0.711c0.412-1.114-0.834-2.602-2.784-3.323    c-1.95-0.722-3.864-0.403-4.276,0.711C357.243,120.555,358.489,122.043,360.439,122.764z"/>
		<path style="fill:#FFE48D;" d="M377.138,167.218c-0.721,1.949-0.403,3.864,0.711,4.277c1.114,0.412,2.602-0.834,3.324-2.784    c0.722-1.95,0.403-3.864-0.711-4.277C379.348,164.022,377.86,165.268,377.138,167.218z"/>
		<path style="fill:#FFE48D;" d="M411.443,152.637c0.721-1.95,0.403-3.864-0.711-4.277c-1.114-0.412-2.602,0.834-3.324,2.784    c-0.721,1.949-0.403,3.864,0.711,4.277C409.234,155.833,410.722,154.587,411.443,152.637z"/>
		<path style="fill:#FFE48D;" d="M342.293,249.412c2.058,0.857,4.123,0.599,4.613-0.577c0.49-1.176-0.781-2.824-2.839-3.681    c-2.058-0.857-4.123-0.599-4.613,0.577S340.236,248.555,342.293,249.412z"/>
		<path style="fill:#FFE48D;" d="M322.008,206.848c0.849,2.061,2.492,3.339,3.669,2.854s1.444-2.549,0.596-4.61    c-0.849-2.061-2.492-3.339-3.669-2.854S321.159,204.787,322.008,206.848z"/>
		<path style="fill:#FFE48D;" d="M351.639,155.57c-2.058-0.857-4.123-0.599-4.613,0.577s0.781,2.824,2.839,3.681    c2.058,0.857,4.123,0.599,4.613-0.577C354.968,158.076,353.697,156.428,351.639,155.57z"/>
		<path style="fill:#FFE48D;" d="M363.139,169.285c0.857-2.058,0.599-4.123-0.577-4.613c-1.176-0.49-2.824,0.781-3.681,2.839    s-0.599,4.123,0.577,4.613C360.633,172.613,362.281,171.342,363.139,169.285z"/>
		<path style="fill:#FFE48D;" d="M353.967,200.5c2.061-0.849,3.339-2.492,2.854-3.669c-0.485-1.178-2.549-1.444-4.61-0.596    c-2.061,0.849-3.339,2.492-2.854,3.669C349.842,201.082,351.906,201.349,353.967,200.5z"/>
		<path style="fill:#FFE48D;" d="M303.429,141.893c-0.308,2.217,0.469,4.156,1.735,4.333c1.267,0.176,2.543-1.478,2.852-3.695    c0.308-2.217-0.469-4.156-1.735-4.332C305.014,138.022,303.738,139.676,303.429,141.893z"/>
		<path style="fill:#FFE48D;" d="M293.759,158.254c-1.785,1.349-2.608,3.27-1.837,4.291c0.771,1.02,2.844,0.753,4.629-0.596    c1.785-1.35,2.608-3.27,1.837-4.291C297.617,156.638,295.544,156.905,293.759,158.254z"/>
		<path style="fill:#FFE48D;" d="M338.084,163.359c0.308-2.217-0.469-4.156-1.735-4.332c-1.267-0.176-2.543,1.478-2.852,3.695    c-0.308,2.217,0.469,4.156,1.735,4.332C336.499,167.23,337.776,165.576,338.084,163.359z"/>
		<path style="fill:#FFE48D;" d="M312.941,170.516c2.217,0.308,4.156-0.469,4.332-1.735c0.176-1.267-1.478-2.543-3.695-2.852    c-2.217-0.308-4.156,0.469-4.332,1.735C309.07,168.931,310.724,170.208,312.941,170.516z"/>
		<path style="fill:#FFE48D;" d="M270.424,118.525c1.859,1.128,3.888,1.182,4.533,0.12c0.645-1.062-0.339-2.838-2.198-3.966    c-1.859-1.128-3.889-1.182-4.533-0.12C267.581,115.62,268.565,117.396,270.424,118.525z"/>
		<path style="fill:#FFE48D;" d="M283.327,118.617c1.859,1.128,3.888,1.182,4.533,0.12c0.645-1.062-0.339-2.838-2.198-3.966    c-1.859-1.128-3.888-1.182-4.533-0.12C280.484,115.713,281.468,117.489,283.327,118.617z"/>
		<path style="fill:#FFE48D;" d="M291.233,98.328c-2.112,0.517-3.585,1.914-3.29,3.121c0.295,1.207,2.247,1.767,4.359,1.25    c2.112-0.517,3.585-1.914,3.29-3.121C295.297,98.371,293.345,97.811,291.233,98.328z"/>
		<path style="fill:#FFE48D;" d="M351.275,221.838c-0.265-2.158-1.48-3.785-2.713-3.633c-1.233,0.152-2.018,2.024-1.753,4.182    c0.265,2.158,1.48,3.785,2.713,3.633C350.755,225.869,351.54,223.996,351.275,221.838z"/>
		<path style="fill:#FFE48D;" d="M315.357,118.29c-0.517-2.112-1.914-3.585-3.121-3.29c-1.207,0.295-1.767,2.247-1.25,4.359    c0.517,2.112,1.914,3.585,3.121,3.29C315.313,122.354,315.873,120.402,315.357,118.29z"/>
		<path style="fill:#FFE48D;" d="M332.3,142.965c-1.072-2.064-2.898-3.242-4.077-2.629c-1.18,0.613-1.267,2.783-0.195,4.847    c1.072,2.064,2.898,3.241,4.077,2.629C333.285,147.2,333.372,145.029,332.3,142.965z"/>
		<path style="fill:#FFE48D;" d="M276.134,145.226c1.113,1.587,2.751,2.358,3.658,1.722c0.907-0.636,0.74-2.438-0.374-4.025    c-1.113-1.587-2.751-2.358-3.658-1.722C274.854,141.837,275.021,143.639,276.134,145.226z"/>
	</g>
	<g>
		<path style="fill:#82AA5A;" d="M322.611,423.29c-40.503,0-73.338-12.924-73.338-41.907c0-7.9,4.203-18.608,10.476-25.29    c10.977-11.692,36.184-16.617,62.862-16.617c26.678,0,51.885,4.925,62.862,16.617c6.273,6.683,10.476,17.39,10.476,25.29    C395.949,410.366,363.114,423.29,322.611,423.29z"/>
		<path style="opacity:0.25;fill:#FAFAFA;" d="M308.93,392.445c11.444,7.741,4.171,25.745-9.489,23.676    c-10.225-1.548-19.067-4.187-26.145-7.843c-12.263-6.333-18.48-15.381-18.48-26.895c0-1.694,0.244-3.537,0.687-5.435    c0.691-2.96,4.133-4.264,6.585-2.467c4.993,3.658,12.063,6.588,20.34,8.763C289.088,383.996,300.112,386.48,308.93,392.445z"/>
		<path style="opacity:0.5;fill:#82AA5A;" d="M322.611,418.052c30.969,0,57.716-7.113,70.281-22.576    c-9.021,19.113-37.064,27.814-70.281,27.814c-33.216,0-61.26-8.7-70.281-27.814C264.895,410.939,291.642,418.052,322.611,418.052z    "/>
		<ellipse style="fill:#82AA5A;" cx="322.611" cy="360.429" rx="62.861" ry="20.954"/>
		<ellipse style="opacity:0.5;fill:#82AA5A;" cx="322.611" cy="359.774" rx="57.623" ry="17.68"/>
		<g>
			<defs>
				<ellipse id="SVGID_1_" cx="322.611" cy="359.774" rx="57.623" ry="17.68"/>
			</defs>
			<clipPath id="SVGID_00000115516343420379390100000003922183957134194585_">
				<use xlink:href="#SVGID_1_" style="overflow:visible;"/>
			</clipPath>
			<g style="clip-path:url(#SVGID_00000115516343420379390100000003922183957134194585_);">
				<path style="fill:#A55F50;" d="M322.611,381.383c-24.581,0-45.852-4.706-56.186-11.559c7.523-11.661,23.317-25.11,56.186-25.11      c32.869,0,48.662,13.449,56.186,25.11C368.463,376.677,347.192,381.383,322.611,381.383z"/>
				<path style="opacity:0.5;fill:#A55F50;" d="M322.611,381.383c-24.581,0-45.852-4.706-56.186-11.559      c7.523-11.661,23.317-25.11,56.186-25.11c32.869,0,48.662,13.449,56.186,25.11C368.463,376.677,347.192,381.383,322.611,381.383      z"/>
				<path style="fill:none;stroke:#462837;stroke-width:0.8;stroke-linecap:round;stroke-linejoin:round;stroke-miterlimit:10;" d="      M266.425,369.823c7.523-11.661,23.317-25.11,56.186-25.11c32.869,0,48.662,13.449,56.186,25.11"/>
			</g>
			<g style="clip-path:url(#SVGID_00000115516343420379390100000003922183957134194585_);">
				<path style="fill:#462837;" d="M285.943,354.955c-0.139-1.829-1.099-3.248-2.144-3.168c-1.045,0.079-1.78,1.627-1.641,3.456      c0.139,1.829,1.099,3.248,2.144,3.168C285.347,358.332,286.082,356.785,285.943,354.955z"/>
				<path style="fill:#462837;" d="M281.435,373.692c1.392,1.195,3.074,1.519,3.757,0.724c0.683-0.795,0.108-2.409-1.284-3.604      c-1.392-1.195-3.074-1.519-3.757-0.724C279.469,370.883,280.044,372.497,281.435,373.692z"/>
				<path style="fill:#462837;" d="M298.005,347.625c-0.673,1.239-0.645,2.556,0.064,2.94c0.708,0.384,1.828-0.308,2.501-1.548      c0.673-1.239,0.645-2.556-0.064-2.94C299.798,345.693,298.678,346.386,298.005,347.625z"/>
				<path style="fill:#462837;" d="M304.406,376.633c-1.352,0.4-2.263,1.351-2.034,2.124c0.229,0.773,1.51,1.074,2.863,0.674      c1.352-0.4,2.263-1.351,2.034-2.124C307.04,376.535,305.759,376.233,304.406,376.633z"/>
				<path style="fill:#462837;" d="M328.235,376.927c-1.239-0.673-2.556-0.645-2.94,0.064c-0.385,0.708,0.308,1.828,1.547,2.501      c1.239,0.673,2.556,0.645,2.94-0.064C330.167,378.72,329.474,377.6,328.235,376.927z"/>
				<path style="fill:#462837;" d="M298.958,353.095c-0.4-1.352-1.351-2.263-2.124-2.034c-0.773,0.229-1.074,1.51-0.674,2.863      c0.4,1.352,1.351,2.263,2.124,2.034C299.057,355.729,299.358,354.447,298.958,353.095z"/>
				<path style="fill:#462837;" d="M280.433,364.454c-0.639-1.257-1.74-1.98-2.458-1.615s-0.782,1.68-0.143,2.937      c0.639,1.257,1.74,1.98,2.458,1.615C281.009,367.026,281.073,365.711,280.433,364.454z"/>
				<path style="fill:#462837;" d="M300.019,370.527c1.352-0.4,2.263-1.351,2.034-2.124c-0.229-0.773-1.51-1.074-2.863-0.674      c-1.352,0.4-2.263,1.351-2.034,2.124C297.385,370.626,298.667,370.928,300.019,370.527z"/>
				<path style="fill:#462837;" d="M292.696,359.14c0.527,1.78,1.779,2.979,2.796,2.677c1.017-0.301,1.414-1.988,0.887-3.768      c-0.527-1.78-1.779-2.979-2.796-2.678C292.566,355.673,292.169,357.361,292.696,359.14z"/>
				<path style="fill:#462837;" d="M318.102,343.625c-1.945-0.379-3.697,0.215-3.913,1.327c-0.216,1.111,1.185,2.319,3.13,2.698      c1.945,0.379,3.697-0.215,3.913-1.327C321.449,345.212,320.047,344.004,318.102,343.625z"/>
				<path style="fill:#462837;" d="M322.198,362.371c1.976-0.15,3.508-1.187,3.422-2.316c-0.086-1.129-1.757-1.923-3.733-1.772      c-1.976,0.15-3.508,1.187-3.422,2.316C318.551,361.728,320.222,362.521,322.198,362.371z"/>
				<path style="fill:#462837;" d="M310.3,373.588c1.291-1.503,1.641-3.32,0.782-4.057c-0.859-0.738-2.602-0.117-3.893,1.386      c-1.291,1.503-1.641,3.32-0.782,4.057C307.267,375.712,309.01,375.091,310.3,373.588z"/>
				<path style="fill:#462837;" d="M307.724,357.201c-0.379,1.945,0.215,3.697,1.327,3.913c1.111,0.216,2.319-1.185,2.698-3.13      c0.379-1.945-0.215-3.697-1.327-3.913C309.31,353.855,308.102,355.256,307.724,357.201z"/>
				<path style="fill:#462837;" d="M321.061,372.221c-1.612,1.362-2.287,3.213-1.509,4.134c0.778,0.921,2.716,0.563,4.327-0.799      c1.612-1.362,2.287-3.213,1.509-4.134C324.61,370.501,322.673,370.859,321.061,372.221z"/>
				<path style="fill:#462837;" d="M331.84,344.854c-1.362-1.612-3.213-2.287-4.134-1.509c-0.921,0.778-0.563,2.716,0.799,4.327      s3.213,2.287,4.133,1.509C333.56,348.403,333.202,346.465,331.84,344.854z"/>
				<path style="fill:#462837;" d="M341.902,362.942c1.612-1.362,2.287-3.213,1.509-4.134c-0.778-0.921-2.716-0.563-4.327,0.799      s-2.287,3.213-1.509,4.133C338.353,364.662,340.29,364.304,341.902,362.942z"/>
				<path style="fill:#462837;" d="M350.655,355.324c-0.626-1.512-1.834-2.448-2.698-2.09c-0.864,0.358-1.057,1.873-0.431,3.385      c0.626,1.512,1.834,2.448,2.697,2.09C351.087,358.352,351.28,356.836,350.655,355.324z"/>
				<path style="fill:#462837;" d="M358.592,359.91c0.627-1.512,0.434-3.027-0.43-3.385s-2.072,0.577-2.698,2.089      c-0.626,1.512-0.434,3.027,0.43,3.385C356.758,362.357,357.966,361.422,358.592,359.91z"/>
				<path style="fill:#462837;" d="M365.37,372.311c0.674-2.069,0.262-4.058-0.92-4.443s-2.687,0.98-3.361,3.049      c-0.674,2.069-0.262,4.058,0.92,4.443C363.191,375.745,364.696,374.38,365.37,372.311z"/>
				<path style="fill:#462837;" d="M342.885,370.191c1.939-0.986,3.055-2.684,2.491-3.793c-0.564-1.108-2.593-1.207-4.532-0.221      c-1.939,0.986-3.055,2.685-2.491,3.793C338.917,371.079,340.946,371.178,342.885,370.191z"/>
				<g>
					<path style="fill:#A55F50;" d="M295.504,365.52c-0.616-1.722-1.913-2.832-2.897-2.48c-0.984,0.352-1.282,2.033-0.666,3.754       s1.913,2.832,2.897,2.48S296.12,367.241,295.504,365.52z"/>
					<path style="fill:#A55F50;" d="M330.913,376.048c0.616,1.721,1.913,2.832,2.897,2.48c0.984-0.352,1.282-2.033,0.666-3.754       c-0.616-1.721-1.913-2.832-2.897-2.48C330.595,372.646,330.297,374.326,330.913,376.048z"/>
					<path style="fill:#A55F50;" d="M274.402,369.217c-1.195,1.392-1.519,3.074-0.724,3.757c0.795,0.683,2.409,0.108,3.604-1.283       c1.195-1.392,1.519-3.074,0.724-3.757C277.21,367.251,275.597,367.825,274.402,369.217z"/>
					<path style="fill:#A55F50;" d="M304.596,351.016c-1.829,0.139-3.248,1.099-3.168,2.144c0.079,1.045,1.627,1.78,3.456,1.641       c1.829-0.139,3.248-1.099,3.168-2.144C307.972,351.612,306.425,350.877,304.596,351.016z"/>
					<path style="fill:#A55F50;" d="M277.847,360.142c1.184,1.401,2.793,1.988,3.594,1.312c0.801-0.677,0.49-2.361-0.694-3.762       c-1.184-1.401-2.793-1.988-3.594-1.312C276.352,357.057,276.663,358.741,277.847,360.142z"/>
					<path style="fill:#A55F50;" d="M286.69,358.221c-0.673,1.239-0.645,2.556,0.064,2.94c0.708,0.385,1.828-0.308,2.501-1.548       c0.673-1.239,0.645-2.556-0.064-2.94C288.482,356.289,287.363,356.982,286.69,358.221z"/>
					<path style="fill:#A55F50;" d="M304.128,358.892c0.673-1.239,0.645-2.556-0.064-2.94c-0.708-0.385-1.828,0.308-2.501,1.548       c-0.673,1.239-0.645,2.556,0.064,2.94C302.335,360.824,303.455,360.131,304.128,358.892z"/>
					<path style="fill:#A55F50;" d="M319.723,353.276c0.378-1.945-0.216-3.697-1.327-3.913c-1.111-0.216-2.319,1.185-2.698,3.13       c-0.379,1.945,0.216,3.697,1.327,3.913C318.137,356.622,319.344,355.221,319.723,353.276z"/>
					<path style="fill:#A55F50;" d="M307.772,367.47c1.643-1.108,2.462-2.767,1.829-3.705c-0.633-0.939-2.478-0.802-4.121,0.306       c-1.643,1.108-2.462,2.767-1.829,3.705C304.284,368.714,306.129,368.577,307.772,367.47z"/>
					<path style="fill:#A55F50;" d="M288.955,352.163c-0.654,2.006-0.254,3.935,0.893,4.309c1.146,0.373,2.606-0.95,3.259-2.957       c0.654-2.006,0.254-3.935-0.893-4.309C291.067,348.833,289.608,350.157,288.955,352.163z"/>
					<path style="fill:#A55F50;" d="M325.044,366.783c1.612-1.362,2.287-3.213,1.509-4.134c-0.778-0.921-2.716-0.563-4.327,0.799       c-1.612,1.362-2.287,3.213-1.509,4.134C321.495,368.503,323.432,368.145,325.044,366.783z"/>
					<path style="fill:#A55F50;" d="M347.354,348.498c-0.627,1.512-0.434,3.027,0.43,3.385c0.864,0.358,2.072-0.577,2.699-2.089       c0.626-1.512,0.434-3.027-0.43-3.385C349.189,346.051,347.981,346.986,347.354,348.498z"/>
					<path style="fill:#A55F50;" d="M333.048,357.031c-1.512,0.626-2.448,1.834-2.09,2.698c0.358,0.864,1.873,1.057,3.385,0.431       c1.512-0.626,2.448-1.833,2.09-2.697C336.075,356.598,334.56,356.405,333.048,357.031z"/>
					<path style="fill:#A55F50;" d="M344.055,348.001c-1.512-0.627-3.027-0.434-3.385,0.43c-0.358,0.864,0.577,2.072,2.089,2.698       c1.512,0.627,3.027,0.434,3.385-0.43C346.502,349.836,345.567,348.628,344.055,348.001z"/>
					<path style="fill:#A55F50;" d="M355.836,375.453c1.512-0.626,2.448-1.834,2.09-2.698c-0.358-0.864-1.873-1.057-3.385-0.431       c-1.512,0.626-2.448,1.833-2.09,2.697C352.809,375.885,354.325,376.078,355.836,375.453z"/>
					<path style="fill:#A55F50;" d="M345.032,361.387c0.626,1.512,1.834,2.448,2.698,2.09c0.864-0.358,1.057-1.873,0.431-3.385       c-0.626-1.512-1.833-2.448-2.697-2.09C344.599,358.36,344.406,359.875,345.032,361.387z"/>
					<path style="fill:#A55F50;" d="M369.312,371.269c2.069,0.674,4.058,0.262,4.443-0.92c0.385-1.182-0.98-2.687-3.049-3.361       c-2.069-0.674-4.058-0.262-4.443,0.92C365.878,369.09,367.243,370.595,369.312,371.269z"/>
				</g>
				<path style="fill:#462837;" d="M366.199,361.509c-0.736,1.676-0.556,3.375,0.401,3.795c0.957,0.421,2.33-0.597,3.066-2.272      c0.736-1.675,0.556-3.375-0.401-3.795C368.308,358.816,366.935,359.833,366.199,361.509z"/>
				<path style="fill:#462837;" d="M349.16,376.007c0.736-1.676,0.556-3.375-0.401-3.795c-0.957-0.421-2.33,0.597-3.066,2.272      c-0.736,1.675-0.556,3.375,0.401,3.795C347.051,378.7,348.424,377.682,349.16,376.007z"/>
				<g>
					<path style="fill:#FFE48D;" d="M315.661,358.514c-1.653-0.782-3.355-0.65-3.802,0.295c-0.447,0.945,0.531,2.344,2.184,3.126       c1.653,0.782,3.355,0.65,3.802-0.295C318.291,360.695,317.314,359.296,315.661,358.514z"/>
					<path style="fill:#FFE48D;" d="M353.522,364.183c0.782-1.653,0.65-3.355-0.295-3.802c-0.945-0.447-2.344,0.531-3.126,2.184       c-0.782,1.653-0.65,3.355,0.295,3.802C351.341,366.814,352.74,365.836,353.522,364.183z"/>
					<path style="fill:#FFE48D;" d="M273.414,367.284c0.782-1.653,0.65-3.355-0.295-3.802c-0.945-0.447-2.344,0.531-3.126,2.184       c-0.782,1.653-0.65,3.355,0.295,3.802C271.233,369.914,272.632,368.937,273.414,367.284z"/>
					<path style="fill:#FFE48D;" d="M342.508,376.191c0.914-1.583,0.922-3.291,0.017-3.813c-0.905-0.522-2.38,0.338-3.294,1.921       c-0.914,1.583-0.922,3.291-0.017,3.813C340.119,378.635,341.594,377.775,342.508,376.191z"/>
					<path style="fill:#FFE48D;" d="M291.673,374.927c1.195-1.392,1.519-3.074,0.724-3.757c-0.795-0.683-2.409-0.108-3.604,1.283       c-1.195,1.392-1.519,3.074-0.724,3.757C288.865,376.894,290.478,376.319,291.673,374.927z"/>
					<path style="fill:#FFE48D;" d="M287.643,367.239c1.195-1.392,1.519-3.074,0.724-3.757c-0.795-0.683-2.409-0.108-3.604,1.283       c-1.195,1.392-1.519,3.074-0.724,3.757C284.834,369.205,286.448,368.631,287.643,367.239z"/>
					<path style="fill:#FFE48D;" d="M298.546,376.916c1.829-0.139,3.248-1.099,3.168-2.144c-0.079-1.045-1.627-1.78-3.456-1.641       c-1.829,0.139-3.248,1.099-3.168,2.144C295.17,376.32,296.717,377.055,298.546,376.916z"/>
					<path style="fill:#FFE48D;" d="M298.591,364.656c1.239,0.673,2.556,0.645,2.94-0.064c0.385-0.708-0.308-1.828-1.548-2.501       c-1.239-0.673-2.556-0.645-2.94,0.064C296.659,362.863,297.352,363.983,298.591,364.656z"/>
					<path style="fill:#FFE48D;" d="M322.489,347.98c-1.643,1.108-2.462,2.767-1.829,3.705c0.633,0.939,2.478,0.802,4.121-0.306       c1.643-1.108,2.462-2.767,1.829-3.705C325.977,346.736,324.132,346.873,322.489,347.98z"/>
					<path style="fill:#FFE48D;" d="M305.48,345.643c-1.643,1.108-2.462,2.767-1.829,3.705c0.633,0.939,2.478,0.802,4.121-0.306       c1.643-1.108,2.462-2.767,1.829-3.705C308.968,344.398,307.123,344.535,305.48,345.643z"/>
					<path style="fill:#FFE48D;" d="M314.181,349.126c-1.108-1.643-2.767-2.462-3.705-1.829c-0.939,0.633-0.802,2.478,0.306,4.121       c1.108,1.643,2.767,2.462,3.705,1.829C315.425,352.614,315.288,350.769,314.181,349.126z"/>
					<path style="fill:#FFE48D;" d="M312.092,366.916c1.108,1.643,2.767,2.462,3.705,1.829c0.939-0.633,0.802-2.478-0.305-4.121       c-1.108-1.643-2.767-2.462-3.705-1.829C310.848,363.428,310.985,365.273,312.092,366.916z"/>
					<path style="fill:#FFE48D;" d="M313.703,374.857c-2.103-0.177-3.889,0.654-3.99,1.856c-0.101,1.202,1.522,2.319,3.625,2.495       c2.103,0.177,3.889-0.654,3.99-1.856C317.429,376.151,315.806,375.034,313.703,374.857z"/>
					<path style="fill:#FFE48D;" d="M338.242,350.455c0.177-2.103-0.654-3.889-1.856-3.99c-1.202-0.101-2.319,1.522-2.495,3.625       c-0.177,2.103,0.655,3.889,1.856,3.99C336.948,354.18,338.065,352.557,338.242,350.455z"/>
					<path style="fill:#FFE48D;" d="M328.716,372.229c2.103,0.176,3.889-0.655,3.99-1.856c0.101-1.201-1.522-2.319-3.625-2.495       c-2.103-0.176-3.889,0.655-3.99,1.856C324.991,370.935,326.614,372.052,328.716,372.229z"/>
					<path style="fill:#FFE48D;" d="M331.448,366.373c1.362,1.612,3.213,2.287,4.134,1.509c0.921-0.778,0.563-2.716-0.799-4.327       c-1.362-1.612-3.213-2.287-4.134-1.509C329.729,362.824,330.086,364.761,331.448,366.373z"/>
					<path style="fill:#FFE48D;" d="M325.886,355.021c-0.177,2.103,0.655,3.889,1.856,3.99c1.202,0.101,2.319-1.522,2.495-3.625       c0.176-2.103-0.655-3.889-1.856-3.99C327.179,351.296,326.062,352.919,325.886,355.021z"/>
					<path style="fill:#FFE48D;" d="M338.364,355.324c-0.627,1.512-0.434,3.027,0.43,3.385c0.864,0.358,2.072-0.577,2.698-2.089       c0.627-1.512,0.434-3.027-0.429-3.385C340.198,352.877,338.99,353.812,338.364,355.324z"/>
					<path style="fill:#FFE48D;" d="M350.836,370.637c1.458-0.742,2.297-2.019,1.873-2.852c-0.424-0.833-1.95-0.908-3.408-0.166       c-1.458,0.742-2.297,2.019-1.873,2.852C347.852,371.305,349.378,371.379,350.836,370.637z"/>
					<path style="fill:#FFE48D;" d="M359.017,367.323c1.512,0.626,3.027,0.434,3.385-0.43c0.358-0.864-0.577-2.072-2.089-2.698       c-1.512-0.626-3.027-0.434-3.385,0.43C356.57,365.489,357.506,366.697,359.017,367.323z"/>
					<path style="fill:#FFE48D;" d="M352.472,352.142c-0.674,2.069-0.262,4.058,0.92,4.443c1.182,0.385,2.687-0.98,3.361-3.049       c0.674-2.069,0.262-4.058-0.92-4.443C354.65,348.708,353.146,350.073,352.472,352.142z"/>
					<path style="fill:#FFE48D;" d="M360.347,361.091c0.986,1.939,2.684,3.055,3.793,2.491c1.108-0.564,1.207-2.593,0.221-4.532       c-0.986-1.939-2.685-3.055-3.793-2.491C359.459,357.123,359.36,359.152,360.347,361.091z"/>
					<path style="fill:#FFE48D;" d="M371.301,365.264c0.664,1.705,1.993,2.78,2.967,2.4c0.974-0.38,1.226-2.07,0.561-3.775       c-0.664-1.705-1.993-2.779-2.967-2.4C370.888,361.869,370.637,363.559,371.301,365.264z"/>
				</g>
			</g>
		</g>
		<g>
			<path style="fill:none;stroke:#462837;stroke-width:1.6;stroke-linecap:round;stroke-linejoin:round;stroke-miterlimit:10;" d="     M322.611,423.29c-40.503,0-73.338-12.924-73.338-41.907c0-7.9,4.203-18.608,10.476-25.29     c10.977-11.692,36.184-16.617,62.862-16.617c26.678,0,51.885,4.925,62.862,16.617c6.273,6.683,10.476,17.39,10.476,25.29     C395.949,410.366,363.114,423.29,322.611,423.29z"/>
			<path style="fill:none;stroke:#462837;stroke-width:1.6;stroke-linecap:round;stroke-linejoin:round;stroke-miterlimit:10;" d="     M291.156,378.575c9.251,1.786,19.995,2.808,31.455,2.808c34.717,0,62.861-9.381,62.861-20.954"/>
			<path style="fill:none;stroke:#462837;stroke-width:1.6;stroke-linecap:round;stroke-linejoin:round;stroke-miterlimit:10;" d="     M288.171,377.961c0.007,0.001,0.014,0.003,0.021,0.004"/>
			<path style="fill:none;stroke:#462837;stroke-width:1.6;stroke-linecap:round;stroke-linejoin:round;stroke-miterlimit:10;" d="     M259.75,360.429c0,6.479,8.821,12.271,22.678,16.114"/>
			
				<ellipse style="fill:none;stroke:#462837;stroke-width:0.8;stroke-linecap:round;stroke-linejoin:round;stroke-miterlimit:10;" cx="322.611" cy="359.774" rx="57.623" ry="17.68"/>
		</g>
		<g>
			<path style="fill:#FAFAFA;" d="M261.158,381.383c2.136,15.273,17.562,21.418,30.186,26.652c0.834,0.332,0.523,1.643-0.377,1.551     c-11.348-1.136-23.792-5.948-29.447-16.583c-1.867-3.604-2.582-7.777-1.958-11.62     C259.704,380.494,261.021,380.493,261.158,381.383L261.158,381.383z"/>
		</g>
	</g>
</g>
</svg>