<?xml version="1.0" encoding="UTF-8"?>
<svg xmlns="http://www.w3.org/2000/svg" xmlns:xlink="http://www.w3.org/1999/xlink" version="1.1" x="0px" y="0px" viewBox="0 0 3710 3710" style="background: transparent;" xml:space="preserve">
<g id="Background">
	<g>
		<g>
			
		</g>
	</g>
</g>
<g id="Illustration">
	<g>
		<path style="fill:#F4F7FA;" d="M1129.449,527.997c-97.851,140.08,16.882,367.182-128.312,472.533    c-141.336,102.552-314.962-65.544-448.162,22.732c-197.595,130.952-161.51,730.164,127.383,1102.466    c86.88,111.964,159.474,155.527,191.625,282.154c69.038,271.898-173.597,433.64-127.423,568.117    c103.965,302.792,1702.873,556.87,2344.426-353.119c299.631-425.003,344.463-1038.71,76.751-1504.824    C2681.987,275.794,1349.01,213.685,1129.449,527.997z"/>
		<g>
			<path style="fill:#BFC6D1;" d="M1301.649,946.798c37.623,3.168,70.904-27.288,74.335-68.026     c3.431-40.738-24.286-76.332-61.91-79.5c-1.949-0.164-3.879-0.184-5.801-0.172c-1.794-21.041-5.075-41.651-9.797-61.682     c1.786-0.731,3.568-1.489,5.325-2.393c34.298-17.625,49.261-61.796,33.421-98.661c-15.84-36.867-56.485-52.463-90.783-34.839     c-1.793,0.923-3.5,1.957-5.186,3.018c-11.198-16.909-23.598-32.833-37.096-47.637c1.248-1.623,2.475-3.274,3.613-5.035     c21.783-33.694,14.418-79.748-16.448-102.862c-30.867-23.113-73.549-14.534-95.332,19.16c-1.116,1.728-2.105,3.504-3.068,5.291     c-17.425-8.41-35.617-15.373-54.453-20.821c0.335-2.052,0.64-4.118,0.818-6.227c3.431-40.739,10.856-86.732-26.813-89.311     c-87.138-5.966-106.001,37.097-109.433,77.835c-0.178,2.11-0.222,4.197-0.235,6.277c-19.482,2.222-38.582,6.044-57.169,11.42     c-0.651-1.923-1.328-3.84-2.14-5.729c-15.84-36.864-12.98-61.456-48.983-47.644c-78.51,30.122-91.061,74.605-75.222,111.469     c0.828,1.926,1.762,3.76,2.721,5.568c-15.784,12.338-30.674,25.964-44.542,40.763c-1.484-1.328-2.995-2.635-4.608-3.843     c-30.866-23.113-73.548-14.534-95.331,19.163c-21.783,33.696-14.419,79.748,16.447,102.86c1.581,1.185,3.211,2.231,4.85,3.25     c-8.007,18.961-14.688,38.73-19.977,59.176c-1.893-0.334-3.799-0.637-5.747-0.802c-37.623-3.169-70.904,27.287-74.336,68.026     c-3.431,40.737,24.288,76.331,61.911,79.5c1.949,0.164,3.878,0.184,5.801,0.172c1.795,21.041,5.074,41.65,9.798,61.682     c-1.787,0.731-3.568,1.489-5.326,2.391c-34.297,17.627-49.261,61.798-33.421,98.663c15.84,36.866,56.486,52.461,90.783,34.836     c1.792-0.921,3.501-1.955,5.186-3.017c11.197,16.91,23.598,32.834,37.096,47.639c-1.248,1.623-2.474,3.273-3.613,5.035     c-21.783,33.695-14.419,79.748,16.448,102.861c30.867,23.113,97.685,12.538,119.468-21.156     c1.116-1.728-22.032-1.508-21.068-3.296c17.424,8.41,35.617,15.373,54.453,20.821c-0.335,2.052-0.641,4.118-0.818,6.227     c-3.432,40.738,24.287,76.332,61.91,79.502c37.623,3.168,70.904-27.288,74.336-68.026c0.178-2.11,0.221-4.198,0.234-6.278     c19.482-2.22,38.583-6.042,57.168-11.419c0.652,1.923,1.33,3.84,2.141,5.73c15.84,36.863,56.486,52.46,90.783,34.836     c34.298-17.625,49.262-61.799,33.421-98.662c-0.828-1.927-1.761-3.76-2.72-5.568c15.784-12.338,30.673-25.964,44.542-40.763     c1.484,1.329,2.995,2.635,4.608,3.842c30.867,23.113,73.548,14.536,95.332-19.161c21.783-33.697,14.418-79.748-16.448-102.864     c-1.581-1.182-3.211-2.228-4.849-3.247c8.006-18.96,14.688-38.73,19.975-59.175     C1297.794,946.33,1299.699,946.634,1301.649,946.798z M914.821,1109.647C778.22,1098.142,677.582,968.911,690.04,820.999     c12.458-147.911,133.293-258.489,269.894-246.984c136.602,11.506,237.24,140.737,224.781,288.649     C1172.258,1010.575,1051.423,1121.152,914.821,1109.647z"/>
			<path style="fill:#BFC6D1;" d="M1303.8,735.025c34.298-17.626,49.261-61.797,33.422-98.663     c-15.841-36.865-56.486-52.463-90.784-34.837c-1.794,0.921-3.5,1.957-5.186,3.018c-11.197-16.91-23.598-32.833-37.096-47.637     c1.248-1.622,2.475-3.274,3.613-5.036c21.783-33.694,38.518-100.531,5.444-120.356c-62.774-37.626-95.44,2.963-117.223,36.656     c-1.116,1.728-2.105,3.503-3.069,5.29c-17.425-8.409-35.616-15.371-54.453-20.82c0.336-2.052,0.642-4.118,0.819-6.227     c1.867-22.172-5.539-42.771-18.7-57.497c-8.387,63.701-16.289,127.459-23.557,191.289     c117.235,29.511,198.984,148.296,187.685,282.46c-9.575,113.691-83.208,205.25-178.786,236.342     c0.22,12.428,0.541,24.884,0.425,37.328c-0.312,33.769-2.502,67.609-4.726,101.418c9.273-1.874,18.443-4.109,27.488-6.725     c0.651,1.924,1.329,3.841,2.14,5.73c15.84,36.865,51.231,59.278,114.336,29.664c34.909-16.382,25.709-56.624,9.867-93.489     c-0.827-1.926-1.761-3.76-2.719-5.567c15.784-12.339,30.673-25.965,44.541-40.762c1.484,1.328,2.996,2.635,4.608,3.842     c30.867,23.114,100.113,10.137,121.896-23.559c21.783-33.697-12.146-75.35-43.012-98.464c-1.581-1.184-3.211-2.23-4.85-3.25     c8.007-18.959,14.687-38.73,19.976-59.174c1.895,0.334,3.8,0.638,5.748,0.801c37.623,3.17,70.904-27.288,74.336-68.026     c3.431-40.737-24.287-76.333-61.91-79.5c-1.95-0.164-3.879-0.184-5.801-0.171c-1.794-21.041-5.075-41.651-9.797-61.682     C1300.261,736.686,1302.043,735.927,1303.8,735.025z"/>
			<path style="fill:#D8DEE8;" d="M1336.746,936.987c37.622,3.169,70.904-27.287,74.335-68.025     c3.431-40.739-24.288-76.333-61.911-79.501c-1.949-0.164-3.878-0.184-5.8-0.171c-1.795-21.042-5.074-41.652-9.797-61.684     c1.786-0.731,3.568-1.489,5.324-2.393c34.299-17.625,49.262-61.796,33.422-98.661c-15.84-36.865-56.485-52.463-90.783-34.838     c-1.793,0.922-3.5,1.957-5.185,3.018c-11.198-16.909-23.599-32.834-37.097-47.638c1.248-1.622,2.475-3.274,3.614-5.035     c21.782-33.694,14.419-79.748-16.448-102.861c-30.867-23.114-73.549-14.534-95.331,19.16c-1.116,1.728-2.104,3.504-3.068,5.291     c-17.425-8.41-35.616-15.373-54.453-20.821c0.335-2.052,0.641-4.118,0.819-6.229c3.431-40.738-24.287-76.331-61.91-79.5     c-37.623-3.168-70.904,27.287-74.335,68.025c-0.177,2.111-0.221,4.198-0.235,6.278c-19.482,2.22-38.582,6.043-57.167,11.42     c-0.652-1.923-1.329-3.84-2.14-5.729c-15.84-36.864-56.485-52.462-90.784-34.836c-34.297,17.624-49.261,61.798-33.421,98.661     c0.828,1.927,1.761,3.76,2.721,5.568c-15.784,12.339-30.674,25.964-44.542,40.763c-1.484-1.328-2.995-2.633-4.609-3.844     c-30.867-23.113-73.548-14.533-95.331,19.163c-21.783,33.697-14.419,79.748,16.448,102.862c1.581,1.184,3.212,2.23,4.85,3.25     c-8.007,18.959-14.687,38.729-19.977,59.175c-1.893-0.334-3.798-0.637-5.747-0.8c-37.623-3.17-70.904,27.287-74.335,68.024     c-3.431,40.739,24.287,76.332,61.91,79.501c1.949,0.164,3.878,0.184,5.801,0.171c1.795,21.042,5.074,41.651,9.797,61.682     c-1.786,0.731-3.567,1.491-5.324,2.392c-34.298,17.627-49.261,61.797-33.421,98.663c15.84,36.865,56.486,52.461,90.783,34.836     c1.792-0.921,3.501-1.956,5.186-3.017c11.197,16.91,23.598,32.833,37.096,47.639c-1.248,1.622-2.475,3.274-3.613,5.035     c-21.783,33.694-14.419,79.748,16.448,102.861c30.867,23.113,73.548,14.534,95.331-19.16c1.116-1.728,2.104-3.504,3.069-5.291     c17.424,8.409,35.617,15.373,54.452,20.821c-0.334,2.052-0.64,4.117-0.819,6.228c-3.431,40.738,24.287,76.332,61.91,79.5     c37.623,3.168,70.905-27.287,74.335-68.026c0.178-2.11,0.222-4.198,0.235-6.277c19.482-2.22,38.583-6.042,57.168-11.42     c0.651,1.924,1.33,3.84,2.14,5.729c15.841,36.864,56.486,52.461,90.783,34.836c34.299-17.624,49.262-61.797,33.422-98.66     c-0.828-1.928-1.761-3.76-2.72-5.57c15.784-12.338,30.672-25.963,44.541-40.761c1.484,1.328,2.995,2.633,4.608,3.84     c30.867,23.114,73.548,14.536,95.331-19.16c21.783-33.697,14.419-79.749-16.448-102.864c-1.581-1.182-3.211-2.228-4.85-3.248     c8.007-18.959,14.687-38.729,19.976-59.174C1332.891,936.52,1334.796,936.823,1336.746,936.987z M949.918,1099.837     c-136.6-11.505-237.238-140.736-224.781-288.648C737.595,663.278,858.431,552.7,995.032,564.205s237.239,140.736,224.781,288.648     C1207.356,1000.765,1086.52,1111.342,949.918,1099.837z"/>
		</g>
		<g>
			<linearGradient id="SVGID_1_" gradientUnits="userSpaceOnUse" x1="3390.7761" y1="327.5231" x2="2900.7432" y2="798.5259">
				<stop offset="0" style="stop-color:#FFC444"/>
				<stop offset="0.9964" style="stop-color:#F36F56"/>
			</linearGradient>
			<path style="fill:url(#SVGID_1_);" d="M2413.009,2529.892c-43.229,1.251-85.393-9.644-121.915-31.531     c-111.272-66.703-275.69-176.857-423.611-321.051c-187.698-182.976-295.542-368.97-319.138-551.61l-0.369-2.862l-4.579-779.319     c0-154.017,100.458-279.038,289.063-361.189c155.826-67.872,362.36-101.502,580.55-95.187     c215.65,6.242,415.198,50.737,562.896,124.878c175.571,88.135,267.692,211.992,267.692,358.835l-4.176,744.645l-0.338,2.738     c-21.563,174.896-120.787,355.677-296.162,538.491c-140.667,146.626-299.624,262.827-408.792,334.824     C2498.013,2515.375,2456.139,2528.645,2413.009,2529.892z"/>
			
				<linearGradient id="SVGID_00000044874614179341328380000003239135108569370800_" gradientUnits="userSpaceOnUse" x1="1934.3192" y1="434.8474" x2="3600.0593" y2="3159.2749">
				<stop offset="0" style="stop-color:#FFC444"/>
				<stop offset="0.9964" style="stop-color:#F36F56"/>
			</linearGradient>
			<path style="fill:url(#SVGID_00000044874614179341328380000003239135108569370800_);" d="M2455.805,2529.892     c-42.657,1.251-84.265-9.644-120.305-31.531c-109.803-66.703-272.048-176.857-418.015-321.051     c-185.218-182.976-291.636-368.97-314.919-551.61l-0.366-2.862l-4.518-779.319c0-154.017,99.13-279.038,285.242-361.189     c153.768-67.872,357.572-101.502,572.881-95.187c212.801,6.242,409.712,50.737,555.457,124.878     c173.254,88.135,264.156,211.992,264.156,358.835l-4.122,744.645l-0.334,2.738c-21.277,174.896-119.191,355.677-292.25,538.491     c-138.809,146.626-295.664,262.827-403.39,334.824C2539.685,2515.375,2498.364,2528.645,2455.805,2529.892z"/>
			
				<linearGradient id="SVGID_00000109727204430643802910000000712759802625277575_" gradientUnits="userSpaceOnUse" x1="2817.5969" y1="1986.028" x2="1464.774" y2="-734.2196">
				<stop offset="0" style="stop-color:#FFC444"/>
				<stop offset="0.9964" style="stop-color:#F36F56"/>
			</linearGradient>
			<path style="fill:url(#SVGID_00000109727204430643802910000000712759802625277575_);" d="M1649.137,844.079l4.549,775.381     c51.04,395.62,515.983,715.925,718.481,837.62c58.009,34.861,132.175,32.795,189.774-5.106     c198.271-130.466,637.749-458.918,684.705-839.291l4.171-742.592C3250.817,319.15,1649.137,268.783,1649.137,844.079z"/>
			
				<linearGradient id="SVGID_00000011028772888883527110000013146903517781441208_" gradientUnits="userSpaceOnUse" x1="1802.6646" y1="1458.3044" x2="3108.8865" y2="1458.3044">
				<stop offset="0" style="stop-color:#311944"/>
				<stop offset="1" style="stop-color:#893976"/>
			</linearGradient>
			<path style="fill:url(#SVGID_00000011028772888883527110000013146903517781441208_);" d="M2467.295,2337.564     c-3.711,0.086-9.329-0.53-15.005-3.972c-83.377-50.49-245.003-156.248-385.611-294.361     c-151.878-149.189-239.472-294.235-259.559-430.464l-4.455-762.542c0.185-73.166,58.102-135.784,171.633-185.888     c126.739-55.936,306.724-85.286,492.999-80.862c184.417,4.378,359.15,41.502,480.204,101.571     c107.078,53.132,161.213,115.769,161.386,186.405l-4.152,736.141c-18.747,131.827-100.961,273.943-245.308,423.335     c-135.724,140.465-294.269,251.814-377.137,305.962C2476.619,2336.591,2471.007,2337.475,2467.295,2337.564z"/>
			<path style="fill:#F4F7FA;" d="M2448.27,2285.442c-84.203-51.86-233.932-152.001-364.568-280.565     c-142.73-140.469-225.328-275.263-244.745-399.986l-4.421-758.114c0.132-52.313,48.218-100.299,142.557-142.067     c120.06-53.162,292.074-81.174,471.173-77.154c177.382,3.982,344.576,39.017,459.472,95.866     c89.274,44.169,134.436,92.351,134.559,143.371l-4.144,733.434c-18.218,121.011-96.126,253.355-232.365,394.096     C2679.302,2124.993,2532.089,2230.066,2448.27,2285.442z"/>
			<g>
				
					<linearGradient id="SVGID_00000016761559270709572140000010014702157238981272_" gradientUnits="userSpaceOnUse" x1="2871.834" y1="784.3762" x2="2334.6069" y2="1777.4307">
					<stop offset="0.0036" style="stop-color:#E38DDD"/>
					<stop offset="1" style="stop-color:#9571F6"/>
				</linearGradient>
				<path style="fill:url(#SVGID_00000016761559270709572140000010014702157238981272_);" d="M2749.554,1292.865l-567.007,5.044      c-43.588,0.388-79.1,34.367-79.1,75.872v363.287c0,41.261,35.38,73.243,78.81,71.464l565.006-23.136      c40.188-1.645,72.78-34.913,72.985-74.336l1.796-347.048C2822.248,1324.371,2789.879,1292.506,2749.554,1292.865z"/>
				
					<linearGradient id="SVGID_00000082342187287779834120000015897282120065056897_" gradientUnits="userSpaceOnUse" x1="2261.0803" y1="564.4668" x2="2538.1184" y2="1825.6101">
					<stop offset="0.0036" style="stop-color:#E38DDD"/>
					<stop offset="1" style="stop-color:#9571F6"/>
				</linearGradient>
				<path style="opacity:0.8;fill:url(#SVGID_00000082342187287779834120000015897282120065056897_);" d="M2543.634,1501.187      c0.127-40.123-34.311-71.84-76.36-69.181c-37.23,2.351-68.112,32.417-70.201,68.498c-1.62,27.986,13.517,52.232,36.56,64.539      c9.796,5.233,14.64,16.2,12.707,27.026l-16.387,91.772c-2.085,11.681,7.173,21.96,19.382,21.531l41.479-1.456      c12.127-0.424,21.353-11.291,19.349-22.773l-15.856-90.901c-1.894-10.854,3.7-21.615,13.531-27.527      C2529.21,1549.859,2543.551,1526.98,2543.634,1501.187z"/>
				
					<linearGradient id="SVGID_00000119801917943271931350000018229805509110165920_" gradientUnits="userSpaceOnUse" x1="2716.6003" y1="700.3976" x2="2179.3738" y2="1693.4514">
					<stop offset="0.0036" style="stop-color:#E38DDD"/>
					<stop offset="1" style="stop-color:#9571F6"/>
				</linearGradient>
				<path style="fill:url(#SVGID_00000119801917943271931350000018229805509110165920_);" d="M2741.59,1256.831      c-17.028,0.111-30.799-13.417-30.725-30.221l0.344-79.136c0.347-79.481-65.361-144.866-147.253-145.679l-185.073-1.837      c-84.753-0.843-154.438,65.246-154.51,147.24l-0.072,81.636c-0.015,17.333-14.773,31.48-33,31.599      c-18.27,0.119-33.104-13.891-33.096-31.297l0.032-81.976c0.046-117.186,99.844-211.286,220.768-209.606l185.154,2.574      c116.318,1.617,209.233,94.712,208.69,207.38l-0.379,78.821C2772.389,1243.065,2758.579,1256.719,2741.59,1256.831z"/>
			</g>
		</g>
		<g>
			<path style="fill:#26264F;" d="M3325.556,3013.475l-2815.503-23.999v71.009c0,19.273,12.28,35.662,28.911,38.583l796.14,139.83     c9.448,1.66,19.03,2.1,28.564,1.313l1931.291-159.429c17.242-1.423,30.596-17.863,30.596-37.665V3013.475z"/>
			<g>
				<path style="fill:#26264F;" d="M2303.821,2899.68L539.168,3029.583c-31.577,2.324-57.252-22.376-57.252-55.175V1660.321      c0-32.799,25.675-59.389,57.252-59.389h1764.653c26.015,0,47.049,24.036,47.049,53.687v1187.91      C2350.87,2872.179,2329.836,2897.765,2303.821,2899.68z"/>
				
					<linearGradient id="SVGID_00000114035577034866223900000012603070656417942686_" gradientUnits="userSpaceOnUse" x1="510.0533" y1="2315.3335" x2="2379.0068" y2="2315.3335">
					<stop offset="0" style="stop-color:#444B8C"/>
					<stop offset="0.9964" style="stop-color:#26264F"/>
				</linearGradient>
				<path style="fill:url(#SVGID_00000114035577034866223900000012603070656417942686_);" d="M2331.958,2899.68L567.306,3029.583      c-31.578,2.324-57.252-22.376-57.252-55.175V1660.321c0-32.799,25.674-59.389,57.252-59.389h1764.653      c26.016,0,47.049,24.036,47.049,53.687v1187.91C2379.007,2872.179,2357.974,2897.765,2331.958,2899.68z"/>
				<path style="fill:#FFFFFF;" d="M2276.984,2815.93l-1643.59,112.838c-25.697,1.764-46.579-18.509-46.579-45.286V1732.998      c0-26.777,20.883-48.574,46.579-48.685l1643.59-7.086c21.46-0.093,38.819,19.604,38.819,43.993v1047.886      C2315.804,2793.494,2298.445,2814.458,2276.984,2815.93z"/>
				<path style="fill:#FFFFFF;" d="M1511.955,1636.875c0,12.21-9.083,22.137-20.299,22.172c-11.23,0.036-20.343-9.856-20.343-22.093      c0-12.237,9.113-22.165,20.343-22.173C1502.872,1614.772,1511.955,1624.664,1511.955,1636.875z"/>
			</g>
			
				<linearGradient id="SVGID_00000134231562297445470280000002058744058560580738_" gradientUnits="userSpaceOnUse" x1="510.0533" y1="3033.9514" x2="3325.5559" y2="3033.9514">
				<stop offset="0" style="stop-color:#444B8C"/>
				<stop offset="0.9964" style="stop-color:#26264F"/>
			</linearGradient>
			<path style="fill:url(#SVGID_00000134231562297445470280000002058744058560580738_);" d="M2402.292,2892.474L510.053,3029.21     l825.052,144.908c9.448,1.659,19.03,2.1,28.564,1.313l1961.887-161.955l-893.163-120.072     C2422.404,2892.061,2412.33,2891.75,2402.292,2892.474z"/>
			<polygon style="fill:#26264F;" points="786.161,3030.386 2361.506,2914.854 2849.062,2979.87 1287.287,3103.369    "/>
			<g>
				<path style="fill:#D8DEE8;" d="M1296.571,2881.312l-670.493,45.117c-19.671,1.324-36.356-14.276-36.356-33.992V1718.141      c0-18.762,15.17-33.993,33.931-34.069l672.918-2.717V2881.312z"/>
				<polygon style="fill:#D8DEE8;" points="2162.448,2240.948 1456.005,2265.772 1456.005,2194.342 2162.448,2172.201     "/>
				<polygon style="fill:#D8DEE8;" points="2162.448,2353.574 1456.005,2382.792 1456.005,2311.363 2162.448,2284.827     "/>
				<polygon style="fill:#FFFFFF;" points="1227.412,2253.779 821.764,2267.607 821.764,2214.22 1227.412,2201.507     "/>
				<polygon style="fill:#FFFFFF;" points="1227.412,2339.416 821.764,2355.068 821.764,2301.681 1227.412,2287.143     "/>
				<polygon style="fill:#FFFFFF;" points="1227.412,2425.052 821.764,2442.528 821.764,2389.142 1227.412,2372.779     "/>
				<polygon style="fill:#FFFFFF;" points="1227.412,2510.689 821.764,2529.989 821.764,2476.603 1227.412,2458.416     "/>
				<polygon style="fill:#D8DEE8;" points="1768.179,2484.959 1456.005,2499.812 1456.005,2428.383 1768.179,2414.715     "/>
				<g>
					<path style="fill:#D8DEE8;" d="M1717.912,1925.228v107.298c0,31.023,26.1,55.492,58.196,54.655l79.584-2.076       c31.71-0.828,57.336-26.381,57.336-57.078v-106.17L1717.912,1925.228z M1791.206,2036.155l14.791-44.817       c-6.335-3.27-10.629-9.711-10.629-17.215c0-11.015,9.237-20.118,20.617-20.333c11.367-0.215,20.571,8.52,20.571,19.51       c0,7.488-4.277,14.092-10.594,17.621l14.735,44.08L1791.206,2036.155z"/>
					<path style="fill:#D8DEE8;" d="M1890.405,1912.562c-8.443,0.141-15.292-6.394-15.292-14.596       c0-31.538-26.478-56.857-59.128-56.438c-32.766,0.421-59.509,26.587-59.509,58.329c0,8.255-6.943,15.065-15.516,15.208       c-8.581,0.144-15.542-6.444-15.542-14.713c0-48.307,40.739-88.065,90.568-88.624c49.561-0.556,89.687,37.913,89.687,85.751       C1905.672,1905.666,1898.84,1912.42,1890.405,1912.562z"/>
				</g>
			</g>
			<path style="opacity:0.48;fill:#FFFFFF;" d="M567.299,3029.583l1755.725-129.246l8.935-0.657     c11.936-0.879,22.79-6.779,31.08-15.73c-126.344-6.914-204.818-51.75-255.44-98.079     c-101.659-93.038-84.026-184.787-193.654-245.957c-136.735-76.298-244.25,20.38-348.009-75.008     c-62.904-57.831-32.021-100.956-109.426-187.377c-85.73-95.718-141.546-63.543-227.704-149.69     c-108.939-108.927-54.455-193.676-148.294-271.882c-113.84-94.876-236.611-7.063-344.978-98.052     c-46.74-39.244-72.387-96.297-85.778-156.974h-82.449c-31.578,0-57.253,26.59-57.253,59.39v1314.087     C510.053,3007.205,535.723,3031.903,567.299,3029.583z"/>
		</g>
		<g>
			
				<linearGradient id="SVGID_00000127759230997390447570000003380966543077465766_" gradientUnits="userSpaceOnUse" x1="863.1299" y1="1595.6815" x2="1678.4569" y2="1595.6815">
				<stop offset="0" style="stop-color:#AB316D"/>
				<stop offset="1" style="stop-color:#792D3D"/>
			</linearGradient>
			<path style="fill:url(#SVGID_00000127759230997390447570000003380966543077465766_);" d="M1678.457,1594.219     c0,227.825-176.625,415.722-397.55,422.173c-224.365,6.552-412.767-175.895-417.679-410.143     c-4.972-237.105,179.6-431.45,408.982-431.45C1497.999,1174.799,1678.457,1363.693,1678.457,1594.219z"/>
			
				<linearGradient id="SVGID_00000043417092324532154780000007808757407845275521_" gradientUnits="userSpaceOnUse" x1="1538.5679" y1="1141.5668" x2="891.6237" y2="2363.571">
				<stop offset="0" style="stop-color:#FF9085"/>
				<stop offset="1" style="stop-color:#FB6FBB"/>
			</linearGradient>
			<path style="fill:url(#SVGID_00000043417092324532154780000007808757407845275521_);" d="M1706.007,1594.219     c0,227.825-176.624,415.722-397.549,422.173c-224.365,6.552-412.768-175.895-417.679-410.143     c-4.972-237.105,179.6-431.45,408.982-431.45C1525.549,1174.799,1706.007,1363.693,1706.007,1594.219z"/>
			<path style="fill:#FFFFFF;" d="M1653.845,1594.989c0.135,100.666-39.407,192.364-103.525,258.965     c-62.25,64.66-416.331,77.92-480.355,21.773c-74.104-64.987-122.061-161.248-124.193-270.29     c-4.016-205.4,155.831-373.828,354.572-374.217C1496.382,1230.837,1653.576,1394.544,1653.845,1594.989z"/>
			<g>
				<defs>
					<path id="SVGID_00000181082193579598685320000010742344506580884617_" d="M1653.845,1594.989       c0.266,198.399-153.586,361.963-345.947,367.219c-194.964,5.327-358.152-153.517-362.126-356.77       c-4.016-205.4,155.831-373.828,354.572-374.217C1496.382,1230.837,1653.576,1394.544,1653.845,1594.989z"/>
				</defs>
				<clipPath id="SVGID_00000129177281579987954380000005881477418043520699_">
					<use xlink:href="#SVGID_00000181082193579598685320000010742344506580884617_" style="overflow:visible;"/>
				</clipPath>
				<g style="clip-path:url(#SVGID_00000129177281579987954380000005881477418043520699_);">
					<g>
						
							<linearGradient id="SVGID_00000080902883702917592260000017524625432963417010_" gradientUnits="userSpaceOnUse" x1="1324.9259" y1="1706.9231" x2="1275.0593" y2="1310.759">
							<stop offset="0" style="stop-color:#311944"/>
							<stop offset="1" style="stop-color:#6B3976"/>
						</linearGradient>
						<path style="fill:url(#SVGID_00000080902883702917592260000017524625432963417010_);" d="M1307.568,1720.23        c-67.065,8.41-88.027,33.357-114.962,16.692c-24.553-15.191-14.905-40.659-41.195-58.213        c-36.911-24.646-80.643,8.909-98.292-12.258c-13.818-16.573,12.087-38.136,6.722-82.444        c-6.395-52.823-48.18-63.685-42.911-106.226c3.724-30.065,27.787-50.45,29.53-51.887        c18.633-15.358,27.982-7.413,45.182-21.417c24.929-20.295,13.814-43.959,39.262-67.508        c1.985-1.837,27.203-24.543,54.182-18.607c20.855,4.588,20.743,21.468,38.254,25.877        c31.307,7.884,48.264-42.014,87.161-41.749c30.673,0.209,32.178,31.389,69.474,38.744        c45.793,9.03,78.934-31.102,96.843-15.193c11.469,10.187-1.27,27.442,11.933,46.86c14.44,21.239,36.143,10.04,59.975,32.218        c13.983,13.013,26.518,35.494,25.715,58.606c-0.797,22.941-14.123,28.723-11.105,49.012        c2.942,19.783,16.536,20.413,20.013,39.301c3.911,21.25-8.526,46.411-25.145,60.177c-22.808,18.894-43.494,8.033-56.178,26.8        c-9.477,14.022-0.982,24.613-8.99,41.084c-7.718,15.874-25.024,25.399-58.205,33.138        C1376.857,1726.762,1362.867,1713.296,1307.568,1720.23z"/>
						<g style="opacity:0.3;">
							
								<linearGradient id="SVGID_00000010275165737945897750000017832835437275564699_" gradientUnits="userSpaceOnUse" x1="1316.4314" y1="1707.9928" x2="1266.5658" y2="1311.8365">
								<stop offset="0" style="stop-color:#311944"/>
								<stop offset="1" style="stop-color:#6B3976"/>
							</linearGradient>
							<path style="fill:url(#SVGID_00000010275165737945897750000017832835437275564699_);" d="M1522.798,1602.216         c-38.35-7.37-42.124-44.341-82.777-55.526c-70.062-19.277-127.868,71.129-163.234,49.468         c-33.899-20.763,11.177-108.382-35.66-160.297c-34.666-38.425-86.854-21.134-98.775-49.893         c-5.405-13.038-1.753-33.679,26.6-68.064c-20.182,2.95-36.468,17.604-38.047,19.065         c-25.448,23.549-14.334,47.213-39.262,67.508c-17.2,14.003-26.549,6.058-45.182,21.417         c-1.743,1.437-25.806,21.823-29.53,51.887c-5.269,42.541,36.515,53.403,42.911,106.226         c5.365,44.308-20.54,65.871-6.722,82.444c17.648,21.167,61.38-12.388,98.292,12.258         c26.29,17.554,16.642,43.022,41.195,58.213c26.935,16.665,47.897-8.282,114.962-16.692         c55.3-6.934,69.289,6.532,127.265-6.992c33.181-7.74,50.487-17.264,58.205-33.138c8.008-16.471-0.487-27.062,8.99-41.084         c12.684-18.767,33.37-7.907,56.178-26.8c6.13-5.078,11.686-11.706,16.066-19.113         C1557.545,1601.486,1540.124,1605.546,1522.798,1602.216z"/>
						</g>
					</g>
					
						<linearGradient id="SVGID_00000076591991088270261890000015182484097043371156_" gradientUnits="userSpaceOnUse" x1="1306.9283" y1="1779.3677" x2="1316.019" y2="2071.1013">
						<stop offset="0" style="stop-color:#FFC444"/>
						<stop offset="0.9964" style="stop-color:#F36F56"/>
					</linearGradient>
					<path style="fill:url(#SVGID_00000076591991088270261890000015182484097043371156_);" d="M1059.708,1980.694       c23.582,35.833,105.363,15.713,259.016,9.547c153.186-6.147,220.906,7.961,244.326-27.773       c10.868-16.581,6.668-35.403-1.324-71.224c-5.474-24.531-16.19-72.554-55.352-104.957       c-48.282-39.949-115.748-36.313-183.922-32.64c-71.663,3.861-171.109,9.22-225.708,74.349       c-38.199,45.567-41.174,104.645-41.503,113.352C1054.467,1961.882,1054.079,1972.141,1059.708,1980.694z"/>
					
						<linearGradient id="SVGID_00000176732693796424286760000003090231043906884272_" gradientUnits="userSpaceOnUse" x1="1316.9279" y1="1851.7062" x2="1325.2727" y2="1598.8634">
						<stop offset="0" style="stop-color:#AB316D"/>
						<stop offset="1" style="stop-color:#792D3D"/>
					</linearGradient>
					<path style="fill:url(#SVGID_00000176732693796424286760000003090231043906884272_);" d="M1285.284,1637.397       c0,0,10.351,109.159-63.9,132.461c-8.237,2.585-10.171,13.665-3.336,18.951c23.82,18.425,66.642,47.669,102.002,50.751       c36.707,3.2,79.874-36.652,101.919-60.149c5.9-6.289,2.567-16.684-5.746-18.042c-31.6-5.162-88.57-27.36-83.573-120.527       L1285.284,1637.397z"/>
					
						<linearGradient id="SVGID_00000119839019378304035440000007954665059944942001_" gradientUnits="userSpaceOnUse" x1="1300.0303" y1="1638.4967" x2="1311.0204" y2="1470.2631">
						<stop offset="0" style="stop-color:#AB316D"/>
						<stop offset="1" style="stop-color:#792D3D"/>
					</linearGradient>
					<path style="fill:url(#SVGID_00000119839019378304035440000007954665059944942001_);" d="M1234.377,1559.021       c0,0-3.982,109.795,72.477,107.218c76.061-2.564,69.905-95.588,65.483-119.66c0,0-0.013-63.717-50.858-57.686       C1270.468,1494.944,1236.11,1511.955,1234.377,1559.021z"/>
					
						<linearGradient id="SVGID_00000031906000472878113920000015555439025704654266_" gradientUnits="userSpaceOnUse" x1="1376.8342" y1="1642.9105" x2="1387.8196" y2="1474.7482">
						<stop offset="0" style="stop-color:#AB316D"/>
						<stop offset="1" style="stop-color:#792D3D"/>
					</linearGradient>
					<path style="fill:url(#SVGID_00000031906000472878113920000015555439025704654266_);" d="M1366.699,1585.556       c0,0,7.052-28.695,22.223-14.747c22,20.227-24.372,44.209-24.372,44.209L1366.699,1585.556z"/>
					
						<linearGradient id="SVGID_00000060032624862613965370000006394256669572120237_" gradientUnits="userSpaceOnUse" x1="1226.9417" y1="1634.5989" x2="1237.8807" y2="1467.1469">
						<stop offset="0" style="stop-color:#AB316D"/>
						<stop offset="1" style="stop-color:#792D3D"/>
					</linearGradient>
					<path style="fill:url(#SVGID_00000060032624862613965370000006394256669572120237_);" d="M1242.026,1587.336       c0,0-7.712-28.623-22.752-14.19c-21.866,20.984,25.53,43.704,25.53,43.704L1242.026,1587.336z"/>
					
						<linearGradient id="SVGID_00000156554955961625925760000007013912324236629926_" gradientUnits="userSpaceOnUse" x1="1302.348" y1="1577.7186" x2="1310.0536" y2="1264.3529">
						<stop offset="0" style="stop-color:#FFC444"/>
						<stop offset="0.9964" style="stop-color:#F36F56"/>
					</linearGradient>
					<path style="fill:url(#SVGID_00000156554955961625925760000007013912324236629926_);" d="M1231.998,1557.548       c0.685,2.181,3.667,2.24,4.432,0.087c5.036-14.168,21.099-46.361,64.085-51.494c38.353-4.58,58.986,24.349,68.009,42.445       c1.972,3.954,7.717,2.789,8.112-1.65c2.348-26.418-1.575-77.345-66.947-76.675       C1226.81,1471.11,1225.279,1536.162,1231.998,1557.548z"/>
				</g>
			</g>
		</g>
		<g>
			
				<linearGradient id="SVGID_00000017483252830810872310000010797455199098708358_" gradientUnits="userSpaceOnUse" x1="2940.2957" y1="3087.5269" x2="2958.4773" y2="3318.9299" gradientTransform="matrix(1 0 0 1 -626.2627 0)">
				<stop offset="0.0036" style="stop-color:#26264F"/>
				<stop offset="1" style="stop-color:#444B8C"/>
			</linearGradient>
			<path style="fill:url(#SVGID_00000017483252830810872310000010797455199098708358_);" d="M2349.493,3202.933     c0,0-73.188,33.264-74.384,38.573c-1.196,5.31,47.068-1.78,66.77-1.015c19.702,0.766,35.91-5.057,34.126-13.402     c-1.784-8.347-8.68-29.336-8.68-29.336L2349.493,3202.933z"/>
			
				<linearGradient id="SVGID_00000056425340993622615410000014428256845213395601_" gradientUnits="userSpaceOnUse" x1="2987.2339" y1="3216.3574" x2="2983.9285" y2="2976.6943" gradientTransform="matrix(1 0 0 1 -626.2627 0)">
				<stop offset="0" style="stop-color:#AB316D"/>
				<stop offset="1" style="stop-color:#792D3D"/>
			</linearGradient>
			<path style="fill:url(#SVGID_00000056425340993622615410000014428256845213395601_);" d="M2346.815,3175.938l4.452,32.952     c0,0,11.586,4.125,19.369-0.752l3.321-36.141L2346.815,3175.938z"/>
			
				<linearGradient id="SVGID_00000008847605228941954760000017029546703580982423_" gradientUnits="userSpaceOnUse" x1="3283.886" y1="3060.533" x2="3302.0674" y2="3291.9321" gradientTransform="matrix(1 0 0 1 -626.2627 0)">
				<stop offset="0.0036" style="stop-color:#26264F"/>
				<stop offset="1" style="stop-color:#444B8C"/>
			</linearGradient>
			<path style="fill:url(#SVGID_00000008847605228941954760000017029546703580982423_);" d="M2691.485,3176.728l8.513,13.667     c2.382,3.821,3.091,8.423,1.949,12.778c-2.976,11.365-8.922,33.513-11.514,39.288c-3.532,7.866-50.894,12.539-50.894,12.539     s-4.224-5.943,5.61-13.122c9.833-7.176,16.154-8.306,19.625-18.901c3.469-10.592,5.785-40.557,5.785-40.557L2691.485,3176.728z"/>
			
				<linearGradient id="SVGID_00000058577915828045286600000016510744014204897408_" gradientUnits="userSpaceOnUse" x1="3302.1187" y1="3212.0139" x2="3298.813" y2="2972.3484" gradientTransform="matrix(1 0 0 1 -626.2627 0)">
				<stop offset="0" style="stop-color:#AB316D"/>
				<stop offset="1" style="stop-color:#792D3D"/>
			</linearGradient>
			<path style="fill:url(#SVGID_00000058577915828045286600000016510744014204897408_);" d="M2656.052,3141.999     c3.11,2.479,18.32,48.65,18.32,48.65s4.925,6.296,14.279-2.995c9.352-9.293,4.232-4.168,4.232-4.168l-1.753-45.411     L2656.052,3141.999z"/>
			
				<linearGradient id="SVGID_00000067918504592870248480000011722294732393496961_" gradientUnits="userSpaceOnUse" x1="2303.7747" y1="2828.1082" x2="2480.9753" y2="2828.1082">
				<stop offset="0.0036" style="stop-color:#E38DDD"/>
				<stop offset="1" style="stop-color:#9571F6"/>
			</linearGradient>
			<path style="fill:url(#SVGID_00000067918504592870248480000011722294732393496961_);" d="M2306.546,2513.91     c-3.861,98.295-4.018,205.088,1.638,319.175c6.367,128.472,19.165,247.213,35.291,354.85c5.995,0.192,12.295,0.224,18.876,0.038     c4.443-0.124,8.75-0.339,12.911-0.626c8.368-22.32,18.262-51.671,27.119-86.729c9.313-36.863,14.932-69.931,18.934-101.551     c14.094-111.333-2.423-121.046,9.016-203.554c10.129-73.074,24.536-75.927,41.446-179.675     c18.349-112.571,4.689-129.459-1.953-135.56C2441.547,2454.305,2375.123,2471.987,2306.546,2513.91z"/>
			
				<linearGradient id="SVGID_00000163753629539296230800000006646662652408561548_" gradientUnits="userSpaceOnUse" x1="2316.0276" y1="2828.1155" x2="2480.9749" y2="2828.1155">
				<stop offset="0.0036" style="stop-color:#E38DDD"/>
				<stop offset="1" style="stop-color:#9571F6"/>
			</linearGradient>
			<path style="opacity:0.3;fill:url(#SVGID_00000163753629539296230800000006646662652408561548_);" d="M2469.824,2480.279     c-26.97-24.774-88.651-9.775-153.797,28.033c74.945,80.97,83.115,133.498,74.131,167.58     c-10.155,38.521-41.026,49.614-40.909,91.734c0.145,51.76,46.86,65.472,45.867,120.245     c-0.657,36.219-21.185,35.843-26.032,80.576c-5.737,52.929,21.082,71.167,12.396,110.329     c-3.737,16.849-14.403,38.863-44.779,61.541c2.189,16.081,4.435,32.001,6.776,47.62c5.993,0.188,12.293,0.222,18.875,0.035     c4.443-0.123,8.75-0.338,12.91-0.625c8.369-22.32,18.262-51.67,27.119-86.727c9.313-36.865,14.932-69.932,18.934-101.553     c14.093-111.333-2.423-121.046,9.016-203.554c10.129-73.074,24.536-75.929,41.446-179.677     C2490.125,2503.265,2476.467,2486.378,2469.824,2480.279z"/>
			
				<linearGradient id="SVGID_00000088821496354838401910000002061762090375593890_" gradientUnits="userSpaceOnUse" x1="2352.9692" y1="2810.6409" x2="2709.6938" y2="2810.6409">
				<stop offset="0.0036" style="stop-color:#E38DDD"/>
				<stop offset="1" style="stop-color:#9571F6"/>
			</linearGradient>
			<path style="fill:url(#SVGID_00000088821496354838401910000002061762090375593890_);" d="M2352.969,2512.258     c64.53,94.422,134.133,211.933,196.378,352.59c47.04,106.294,81.157,206.095,106.205,295.04c3.389,1.569,11.385,4.7,21.602,3.349     c13.936-1.843,22.287-10.738,24.47-13.22c10.195-63.761,9.071-117.762,5.61-156.735c-2.215-24.953-6.135-66.507-22.042-117.806     c-17.813-57.463-30.063-60.693-53.304-121.485c-24.124-63.102-18.281-78.849-41.382-157.816     c-9.49-32.439-25.377-80.715-51.591-138.459C2476.934,2475.895,2414.95,2494.077,2352.969,2512.258z"/>
			
				<linearGradient id="SVGID_00000020399322101614317830000001369906402315083906_" gradientUnits="userSpaceOnUse" x1="-1746.4232" y1="1793.631" x2="-1844.2529" y2="2087.1208" gradientTransform="matrix(-0.9998 0.0218 0.0218 0.9998 210.2509 0.1062)">
				<stop offset="0" style="stop-color:#AB316D"/>
				<stop offset="1" style="stop-color:#792D3D"/>
			</linearGradient>
			<path style="fill:url(#SVGID_00000020399322101614317830000001369906402315083906_);" d="M2047.746,1840.139     c0,0-12.521-14.987-20.502-26.151c-7.98-11.166-44.776-42.224-44.776-42.224s-2.64,5.114,5.307,13.03     c7.948,7.916,24.605,21.417,20.973,27.361c-3.633,5.945-14.106,11.344-6.225,22.248c7.881,10.903,21.001,3.054,27.985,11.786     c6.985,8.731,14.154,18.266,14.154,18.266L2047.746,1840.139z"/>
			
				<linearGradient id="SVGID_00000012441949082413600350000005072983651100246941_" gradientUnits="userSpaceOnUse" x1="2171.8821" y1="2044.2679" x2="2339.2151" y2="2738.0583" gradientTransform="matrix(0.9998 -0.0218 0.0218 0.9998 31.9022 3.95)">
				<stop offset="0" style="stop-color:#FFC444"/>
				<stop offset="0.9964" style="stop-color:#F36F56"/>
			</linearGradient>
			<path style="fill:url(#SVGID_00000012441949082413600350000005072983651100246941_);" d="M2049.505,1824.396     c-8.355,10.482-16.71,20.965-25.065,31.447c10.682,46.22,33.455,115.868,86.403,183.521     c56.121,71.708,175.825,179.103,250.344,143.896c45.419-21.458,106.738-95.096,84.705-130.6     c-21.182-34.133-112.851-17.998-175.807-32.218C2208.374,2006.503,2128.28,1961.588,2049.505,1824.396z"/>
			
				<linearGradient id="SVGID_00000030483300797114311910000016592363453675055537_" gradientUnits="userSpaceOnUse" x1="2433.6565" y1="2277.2056" x2="2571.4358" y2="2277.2056" gradientTransform="matrix(0.9998 -0.0218 0.0218 0.9998 31.9022 3.95)">
				<stop offset="0" style="stop-color:#FFC444"/>
				<stop offset="0.9964" style="stop-color:#F36F56"/>
			</linearGradient>
			<path style="fill:url(#SVGID_00000030483300797114311910000016592363453675055537_);" d="M2624.88,2096.991     c0,0,48.829,166.194,18.579,230.141c-30.25,63.947-126.712-6.278-126.712-6.278L2624.88,2096.991z"/>
			
				<linearGradient id="SVGID_00000008829456483414772430000009333209201555163536_" gradientUnits="userSpaceOnUse" x1="2424.6179" y1="2277.2056" x2="2562.3975" y2="2277.2056" gradientTransform="matrix(0.9998 -0.0218 0.0218 0.9998 31.9022 3.95)">
				<stop offset="0" style="stop-color:#FFC444"/>
				<stop offset="0.9964" style="stop-color:#F36F56"/>
			</linearGradient>
			<path style="fill:url(#SVGID_00000008829456483414772430000009333209201555163536_);" d="M2615.843,2097.188     c0,0,48.828,166.194,18.579,230.141c-30.25,63.946-126.712-6.279-126.712-6.279L2615.843,2097.188z"/>
			
				<linearGradient id="SVGID_00000130632911479713145040000009703915188068730519_" gradientUnits="userSpaceOnUse" x1="2311.2036" y1="2010.6656" x2="2478.5364" y2="2704.4553" gradientTransform="matrix(0.9998 -0.0218 0.0218 0.9998 31.9022 3.95)">
				<stop offset="0" style="stop-color:#FFC444"/>
				<stop offset="0.9964" style="stop-color:#F36F56"/>
			</linearGradient>
			<path style="fill:url(#SVGID_00000130632911479713145040000009703915188068730519_);" d="M2473.04,2035.536     c-62.723-1.141-111.029,0.907-137.735,28.783c-28.206,29.445,1.642,61.341-2.976,136.854     c-7.069,115.608-79.991,145.407-82.971,262.603c-1.005,39.488,6.372,71.584,11.981,90.888     c16.577,19.747,43.61,47.535,83.11,70.402c57.481,33.277,90.247,26.542,172.203,47.063     c134.056,33.566,146.859,76.741,212.697,64.235c66.539-12.64,123.904-70.117,116.155-100.825     c-4.642-18.39-31.449-12.567-63.059-40.082c-40.74-35.46-26.09-70.476-57.313-108.855     c-44.848-55.127-104.878-19.52-143.114-67.312c-38.677-48.344-25.873-145.55,4.676-199.048     c19.953-34.943,27.937-75.556,44.768-112.105c1.398-3.036,2.99-8,2.107-14.144c-3.373-23.491-42.913-35.41-72.854-44.135     C2515.047,2036.552,2478.198,2035.628,2473.04,2035.536z"/>
			
				<linearGradient id="SVGID_00000167360262096292006700000002091831233509815941_" gradientUnits="userSpaceOnUse" x1="1100.6913" y1="2030.5858" x2="1155.108" y2="2117.0776" gradientTransform="matrix(0.9998 -0.0218 0.0218 0.9998 1281.1685 -23.2851)">
				<stop offset="0" style="stop-color:#FF9085"/>
				<stop offset="1" style="stop-color:#FB6FBB"/>
			</linearGradient>
			<path style="fill:url(#SVGID_00000167360262096292006700000002091831233509815941_);" d="M2411.984,2034.274l12.276-4.073     c0,0,3.598,16.664,43.384,17.887c22.057-0.481,36.048-13.15,36.048-13.15l8.579,5.972c0,0-18.023,23.548-47.503,23.602     C2426.722,2064.582,2411.984,2034.274,2411.984,2034.274z"/>
			<g>
				
					<linearGradient id="SVGID_00000026152668937998319920000008417912037492451725_" gradientUnits="userSpaceOnUse" x1="1817.0763" y1="2761.605" x2="1753.3779" y2="2864.6465" gradientTransform="matrix(0.9519 -0.3063 0.3063 0.9519 -104.9425 -119.7459)">
					<stop offset="0" style="stop-color:#AB316D"/>
					<stop offset="1" style="stop-color:#792D3D"/>
				</linearGradient>
				<path style="fill:url(#SVGID_00000026152668937998319920000008417912037492451725_);" d="M2422.052,1980.475      c-3.364-18.229,6.862-33.892,9.107-37.264c9.406-14.113,11.652-15.952,15.728-18.174l5.638-2.806c0,0,0.322-0.095,0.656-0.181      c3.538-0.907,15.245-0.194,17.563,0.526c7.409,2.305,12.643,33.82,6.372,77.132c0.3,3.4,0.6,6.8,0.897,10.2      c16.865-2.332,21.745-0.724,22.611,1.534c1.876,4.893-9.87,33.472-25.934,39.099c-20.145,7.055-48.208-11.344-49.894-17.999      c-0.682-2.693-0.562-0.379,13.156-8.323c1.263-3.982,5.187-14.767,6.448-18.749      C2441.492,2003.605,2424.53,1993.903,2422.052,1980.475z"/>
				
					<linearGradient id="SVGID_00000065038478080666424270000011016427521031601801_" gradientUnits="userSpaceOnUse" x1="970.8923" y1="2404.1108" x2="913.0135" y2="2497.7383" gradientTransform="matrix(0.8526 -0.5224 0.5224 0.8526 362.7311 402.2268)">
					<stop offset="0" style="stop-color:#AB316D"/>
					<stop offset="1" style="stop-color:#792D3D"/>
				</linearGradient>
				<path style="fill:url(#SVGID_00000065038478080666424270000011016427521031601801_);" d="M2445.039,1965.806      c3.719-4.24,9.136,0.558,8.633,6.436c-0.502,5.878-6.751,11.466-12.169,9.801      C2436.087,1980.377,2440.033,1971.51,2445.039,1965.806z"/>
			</g>
			<g style="opacity:0.3;">
				
					<linearGradient id="SVGID_00000076572697388507882300000003718145779989840003_" gradientUnits="userSpaceOnUse" x1="2271.9543" y1="2020.1326" x2="2439.2874" y2="2713.9224" gradientTransform="matrix(0.9998 -0.0218 0.0218 0.9998 31.9022 3.95)">
					<stop offset="0" style="stop-color:#FFC444"/>
					<stop offset="0.9964" style="stop-color:#F36F56"/>
				</linearGradient>
				<path style="fill:url(#SVGID_00000076572697388507882300000003718145779989840003_);" d="M2682.239,2637.131      c-63.076-41.91-120.175,6.03-164.765-30.894c-36.722-30.408-6.611-70.055-46.34-123.573      c-43.565-58.685-104.018-43.677-118.425-87.532c-14.891-45.326,44.849-76.086,46.34-139.021      c0.762-32.118-13.659-73.948-71.264-124.118c3.108,18.308,6.292,40.621,4.545,69.179      c-7.07,115.608-79.992,145.407-82.972,262.603c-1.005,39.488,6.372,71.584,11.981,90.888      c16.577,19.747,43.61,47.535,83.11,70.402c57.481,33.277,90.247,26.542,172.203,47.063      c134.057,33.566,146.859,76.741,212.697,64.235c19.176-3.643,37.578-11.022,53.892-20.399      c-19.174-2.984-33.468-9.505-44.364-17.048C2710.071,2678.977,2715.131,2658.986,2682.239,2637.131z"/>
			</g>
			
				<linearGradient id="SVGID_00000030455928649421083030000003136860533794678459_" gradientUnits="userSpaceOnUse" x1="2416.0557" y1="1971.6709" x2="2754.2183" y2="1971.6709">
				<stop offset="0" style="stop-color:#311944"/>
				<stop offset="1" style="stop-color:#6B3976"/>
			</linearGradient>
			<path style="fill:url(#SVGID_00000030455928649421083030000003136860533794678459_);" d="M2549.539,1846.37     c-34.268,3.888-45.917-25.731-76.203-19.677c-38.094,7.614-68.038,64.139-53.571,92.402     c9.031,17.642,30.501,14.768,43.269,37.354c5.314,9.402,7.952,21.144,4.121,49.15c-9.308,68.06-36.164,81.192-26.785,106.164     c11.569,30.807,64.255,42.275,96.839,41.286c11.024-0.334,40.009-1.215,63.873-19.66c21.371-16.519,19.805-32.57,41.773-42.895     c17.95-8.436,24.677-0.394,48.885-6.255c20.383-4.936,56.353-20.505,61.813-45.218c6.08-27.536-31.524-40.136-28.315-75.288     c2.074-22.728,18.373-23.782,24.194-50.536c8.176-37.579-16.266-70.962-20.604-76.674     c-19.608-25.815-58.146-51.943-94.779-45.218C2592.667,1798.902,2589.737,1841.81,2549.539,1846.37z"/>
		</g>
	</g>
</g>
</svg>