<?xml version="1.0" encoding="UTF-8"?>
<svg xmlns="http://www.w3.org/2000/svg" xmlns:xlink="http://www.w3.org/1999/xlink" version="1.1" x="0px" y="0px" viewBox="0 0 2500 2500" style="background: transparent;" xml:space="preserve">
<g id="Background">
	
</g>
<g id="Illustration">
	<g id="Meal_prep_service_1_">
		<circle style="fill:#F2E6DC;" cx="1250" cy="1250" r="915"/>
		<g>
			<g>
				<polygon style="fill:#8B865C;" points="794.153,2160.667 867.082,1687.113 1052.959,2160.667 1327.363,2160.667       1025.463,1361.551 600.914,1372.549 552.702,2160.667     "/>
				<g>
					<path style="fill:#776E42;" d="M688.455,1297.63c7.619,70.649,11.873,153.893,7.589,246.882       c-5.663,122.938-24.671,228.692-45.534,312.719c48.892,25.435,127.695,66.714,227.671,61.721       c192.234-9.6,231.599-64.463,378.566-69.95c-33.275-89.218-88.961-243.918-150.895-349.752       c-33.971-58.05-68.645-110.084-102.452-156.359C898.418,1327.805,793.437,1312.716,688.455,1297.63z"/>
					<path style="fill:#363E44;" d="M771.21,1693.896c-0.013,0-0.025,0-0.037,0c-1.218-0.021-2.189-1.023-2.169-2.24l2.785-172.684       l2.564,0.475c53.593,9.932,108.372,14.997,162.818,15.052c49.789,0.051,99.987-4.092,149.136-12.314       c1.198-0.199,2.337,0.61,2.539,1.811c0.201,1.202-0.61,2.337-1.811,2.539c-49.391,8.263-99.744,12.458-149.869,12.374       c-53.845-0.055-108.015-4.983-161.052-14.653l-2.701,167.473C773.394,1692.932,772.41,1693.896,771.21,1693.896z"/>
				</g>
			</g>
			<g>
				<g>
					<g>
						<g>
							<path style="fill:#FFFFFF;" d="M689.892,898.139c-90.957,18.065-317.931,51.035-309.185,163.269         c13.198,169.38,254.363,92.252,345.848,80.168C719.239,1075.238,697.208,964.477,689.892,898.139z"/>
							<path style="fill:#FFFFFF;" d="M1276.855,1026.09c167.971,101.122,254.971,189.536,210.075,248.937         c-47.661,63.059-153.982,22.731-291.193-65.866C1219.166,1151.805,1246.971,1094.858,1276.855,1026.09z"/>
						</g>
						<path style="fill:#FFFFFF;" d="M1298.911,1039.425c-57.248-34.349-186.629-121.366-325.169-146.555        c-140.945-25.626-239.924-4.357-311.43,10.305c29.769,154.57,28.87,180.734,18.319,237.007        c-13.74,73.278-55.672,123.74-100.757,190.064c-20.774,30.559-43.508,82.437-16.029,98.467        c35.65,20.796,112.664-47.891,304.56-32.059c103.479,8.539,161.79,36.32,206.093,6.869        c63.27-42.06,47.422-105.985,123.656-199.223C1236.25,1157.706,1256.419,1048.709,1298.911,1039.425z"/>
						<path style="fill:#363E44;" d="M685.778,1129.463c-0.207,0-0.416-0.03-0.623-0.09c-1.168-0.344-1.837-1.57-1.493-2.738        l37.619-127.798c0.345-1.168,1.576-1.832,2.738-1.493c1.168,0.345,1.837,1.57,1.493,2.738l-37.619,127.798        C687.61,1128.84,686.731,1129.463,685.778,1129.463z"/>
						<path style="fill:#363E44;" d="M912.063,1404.817c-0.431,0-0.866-0.126-1.247-0.389c-1.003-0.689-1.257-2.062-0.567-3.065        c33.62-48.89,78.357-123.648,111.32-186.026c28.456-53.849,54.245-109.856,76.671-166.505        c-23.034-5.169-44.919-13.778-65.083-25.605c-13.187-7.736-25.643-16.872-37.024-27.153c-0.903-0.817-0.974-2.211-0.158-3.115        c0.819-0.902,2.211-0.975,3.115-0.158c11.159,10.081,23.371,19.038,36.299,26.623c20.498,12.023,42.809,20.653,66.314,25.652        l2.547,0.542l-0.955,2.423c-22.706,57.621-48.891,114.602-77.825,169.358c-33.036,62.514-77.878,137.448-111.587,186.463        C913.454,1404.483,912.765,1404.817,912.063,1404.817z"/>
						<path style="fill:#363E44;" d="M1191.308,1213.348c-0.372,0-0.75-0.094-1.096-0.293c-1.056-0.607-1.42-1.954-0.814-3.01        l66.359-115.517c0.605-1.056,1.949-1.422,3.01-0.814c1.055,0.607,1.421,1.954,0.814,3.01l-66.359,115.517        C1192.815,1212.951,1192.072,1213.348,1191.308,1213.348z"/>
						<path style="fill:#363E44;" d="M1298.151,1255.621c-0.797,0-1.565-0.432-1.957-1.186        c-12.411-23.83-17.064-45.099-13.832-63.218c3.598-20.164,17.255-35.835,39.497-45.316c1.122-0.479,2.416,0.043,2.894,1.164        c0.478,1.12-0.043,2.415-1.163,2.893c-21.105,8.997-33.516,23.139-36.888,42.035c-3.057,17.137,1.451,37.461,13.401,60.406        c0.562,1.08,0.144,2.411-0.937,2.973C1298.842,1255.541,1298.493,1255.621,1298.151,1255.621z"/>
						<path style="fill:#363E44;" d="M569.479,1009.479c-0.625,0-1.248-0.265-1.684-0.781c-7.996-9.446-21.861-22.328-42.514-30.055        c-28.382-10.616-53.983-5.698-66.719-1.825c-1.162,0.356-2.395-0.3-2.751-1.467c-0.355-1.165,0.302-2.396,1.467-2.751        c13.268-4.038,39.948-9.161,69.548,1.913c21.543,8.06,36.001,21.489,44.334,31.336c0.787,0.929,0.671,2.32-0.258,3.107        C570.488,1009.308,569.982,1009.479,569.479,1009.479z"/>
					</g>
					<g>
						<path style="fill:#E2A18D;" d="M1316.084,1170.173c0.33-35.271,134.179-243.225,154.01-276.701        c2.077-3.506,5.714-9.71,12.45-16.191c24.959-24.015,52.462-13.35,90.229-26.626c42.853-15.064,58.453-47.807,68.446-41.917        c6.951,4.098,4.544,18.106-10.372,42.564c-0.001,0.002,0.002,0.005,0.004,0.003c13.469-17.28,32.758-39.917,42.286-32.447        c10.54,9.215-8.999,38.473-21.684,55.594c15.354-20.724,29.719-27.151,33.993-21.661c6.728,8.641-1.436,27.484-22.792,54.086        c-0.001,0.001,0,0.003,0.001,0.002c19.877-14.249,26.823-14.744,29.418-8.971c4.738,10.541-13.23,32.082-32.035,48.689        c-21.169,18.696-44.072,25.853-58.621,30.021c-0.004,0.001-0.007,0.004-0.009,0.008        c-50.86,114.122-70.306,170.634-113.745,261.737C1461.337,1293.577,1315.5,1232.632,1316.084,1170.173z"/>
						<path style="fill:#E2A18D;" d="M1540.973,870.912c19.896-40.301,18.531-59.054,12.044-62.003        c-10.91-4.96-41.979,22.494-78.476,77.731C1493.441,883.918,1522.072,873.635,1540.973,870.912z"/>
						<path style="fill:#363E44;" d="M1535.905,947.814c-0.327,0-0.659-0.072-0.971-0.226c-1.092-0.538-1.542-1.859-1.005-2.952        c3.658-7.433,10.68-17.856,23.372-25.304c17.959-10.537,36.091-8.276,43.048-6.815c1.193,0.25,1.955,1.419,1.705,2.611        c-0.25,1.193-1.419,1.957-2.61,1.704c-6.468-1.356-23.286-3.455-39.913,6.302c-11.748,6.895-18.257,16.557-21.646,23.448        C1537.503,947.362,1536.719,947.814,1535.905,947.814z"/>
						<path style="fill:#363E44;" d="M1502.574,868.365c-0.898,0-1.742-0.553-2.069-1.445c-0.42-1.142,0.166-2.409,1.307-2.83        c9.463-3.482,19.482-4.621,30.088-5.826c4.916-0.559,9.999-1.137,15.283-1.971c1.204-0.194,2.334,0.632,2.521,1.835        c0.192,1.202-0.631,2.332-1.832,2.521c-5.379,0.849-10.512,1.432-15.473,1.997c-10.337,1.174-20.098,2.284-29.063,5.583        C1503.085,868.321,1502.829,868.365,1502.574,868.365z"/>
						<path style="fill:#363E44;" d="M1596.749,876.094c-0.876,0-1.705-0.527-2.05-1.391c-0.448-1.132,0.103-2.414,1.236-2.864        c4.959-1.972,9.754-4.411,14.247-7.249c6.528-4.12,12.492-9.114,17.731-14.844c0.823-0.9,2.216-0.961,3.116-0.139        c0.898,0.821,0.96,2.216,0.14,3.115c-5.503,6.02-11.773,11.267-18.631,15.597c-4.726,2.982-9.762,5.545-14.975,7.617        C1597.296,876.043,1597.02,876.094,1596.749,876.094z"/>
						<path style="fill:#363E44;" d="M1619.245,896.486c-0.876,0-1.705-0.527-2.05-1.392c-0.448-1.132,0.103-2.414,1.236-2.863        c4.957-1.97,9.752-4.409,14.247-7.247c6.526-4.12,12.492-9.114,17.731-14.844c0.823-0.9,2.22-0.96,3.116-0.139        c0.898,0.821,0.96,2.216,0.14,3.115c-5.505,6.019-11.773,11.267-18.631,15.597c-4.728,2.984-9.767,5.547-14.975,7.616        C1619.792,896.436,1619.516,896.486,1619.245,896.486z"/>
						<path style="fill:#363E44;" d="M1629.255,932.043c-0.876,0-1.705-0.527-2.05-1.392c-0.448-1.132,0.103-2.414,1.236-2.863        c4.961-1.971,9.754-4.41,14.247-7.248c6.531-4.122,12.495-9.117,17.731-14.844c0.823-0.901,2.215-0.961,3.116-0.139        c0.898,0.821,0.96,2.216,0.14,3.115c-5.501,6.018-11.771,11.265-18.631,15.597c-4.724,2.983-9.762,5.545-14.975,7.617        C1629.802,931.993,1629.526,932.043,1629.255,932.043z"/>
					</g>
					<g>
						<g>
							<path style="fill:#E2A18D;" d="M508.607,1168.657c161.691,36.221,209.224,35.751,287.962,50.349         c41.32,7.663,81.222,23.218,118.289,7.113c16.434-7.14,32.79-18.233,26.334-29.755         c-10.083-17.993-57.933,3.343-65.746-11.547c-7.849-14.962,32.85-48.606,51.158-40.797c14.775,6.3-3.058,40.606,15.67,43.979         c12.815,2.308,21.434-17.872,24.778-32.592c1.061-4.672,5.514-24.276-7.856-41.015         c-14.141-17.709-36.028-16.943-38.255-16.827c14.495-19.089,58.019-74.988,45.372-86.222         c-15.691-13.937-68.08,48.053-81.097,62.843c1.267-2.11,41.967-77.467,29.284-88.123         c-19.832-16.661-47.623,40.193-69.716,66.453c4.197-14.971,20.537-66.67,9.777-73.09         c-18.464-11.016-39.912,53.803-64.726,88.816c-36.501-8.215-158.935-53.726-249.822-65.622         C417.199,986.547,386.723,1141.354,508.607,1168.657z"/>
						</g>
						<path style="fill:#363E44;" d="M767.297,1157.49c-2.23,0-4.185-0.109-5.803-0.253c-1.212-0.109-2.108-1.18-1.999-2.393        c0.109-1.212,1.175-2.092,2.393-1.999c7.064,0.635,21.064,0.532,35.466-7.252c16.191-8.747,24.11-22.254,27.39-29.526        c0.502-1.111,1.807-1.602,2.916-1.103c1.11,0.5,1.604,1.806,1.103,2.916c-3.508,7.779-11.983,22.229-29.313,31.593        C787.333,1156.022,775.483,1157.49,767.297,1157.49z"/>
					</g>
				</g>
			</g>
			<g>
				<g>
					<path style="fill:#D87355;" d="M958.325,867.391c30.031,6.391,74.135,28.02,73.526,55.371       c-0.612,27.514-46.257,51.232-84.418,50.832c-51.866-0.541-103.384-45.777-97.128-74.434       C856.225,872.051,914.234,858.006,958.325,867.391z"/>
					<g>
						
							<ellipse transform="matrix(0.3203 -0.9473 0.9473 0.3203 -228.8211 1608.7277)" style="fill:#D87355;" cx="1006.709" cy="963.829" rx="18.855" ry="18.854"/>
						<path style="fill:#D87355;" d="M1002.88,962.096c-5.33,7.404-11.607,17.898-15.908,31.407        c-13.513,42.434,0.486,89.429,9.463,89.556c7.956,0.114,16.669-36.516,16.528-66.576        C1012.854,993.429,1007.54,974.618,1002.88,962.096z"/>
						<path style="fill:#D87355;" d="M1006.047,969.221c8.882-8.018,21.539-17.636,38.036-24.85        c51.817-22.663,110.752-8.17,111.389,4.09c0.567,10.864-44.321,26.392-81.547,29.168        C1045.374,979.76,1021.799,974.353,1006.047,969.221z"/>
					</g>
				</g>
				<g>
					<path style="fill:#E2A18D;" d="M1008.844,656.825c4.228,0.219,44.687,2.923,64.678,33.854       c14.875,23.015,13.123,49.44,3.483,93.319c-11.352,51.672-25.356,80.974-41.924,89.032       c-26.177,12.731-91.88-34.318-111.82-83.897c-14.393-35.788-5.856-77.834,19.421-107.329       C967.889,652.389,1006.145,656.686,1008.844,656.825z"/>
					<path style="fill:#E2A18D;" d="M940.458,949.045L940.458,949.045c29.306,4.38,56.614-15.826,60.996-45.132l21.489-143.732       c4.381-29.305-15.824-56.613-45.13-60.993h0c-29.306-4.38-56.614,15.826-60.996,45.132l-21.489,143.732       C890.947,917.357,911.152,944.665,940.458,949.045z"/>
					<path style="fill:#363E44;" d="M1006.374,874.153c-0.239,0-0.482-0.04-0.721-0.123c-14.727-5.098-37.321-20.175-51.439-34.326       c-0.86-0.861-0.858-2.258,0.004-3.118c0.86-0.86,2.258-0.858,3.118,0.004c13.485,13.517,35.808,28.444,49.759,33.274       c1.151,0.398,1.76,1.654,1.362,2.804C1008.142,873.58,1007.288,874.153,1006.374,874.153z"/>
					<path style="fill:#363E44;" d="M1029.252,709.486c5.077-6.118,55.189,1.668,68.796,27.638       c5.017,9.576,0.416,18.118,8.814,24.778c6.053,4.801,13.57-2.507,22.009,0.869c7.24,2.896,5.475,11.666,11.873,17.086       c4.957,4.198,11.005,3.186,22.108,0.736c-13.709,27.065-26.451,28.513-32.823,26.486c-5.66-1.801-4.633-14.19-11.873-17.376       c-8.424-3.706-17.665,6.95-27.222,1.158c-16.565-10.04-17.211-31.736-26.642-44.597       C1051.55,728.889,1026.178,713.19,1029.252,709.486z"/>
					<g>
						<g>
							<path style="fill:#FFFFFF;" d="M1080.522,760.788c-0.109,0.262,0.001,0.529-0.109,0.792         c-0.004,0.011-0.012,0.018-0.017,0.029c-0.316,3.974-0.639,8.168-0.224,12.132c0.184,1.755,0.994,2.946,1.355,4.581         c0.265,1.199,0.513,2.348,0.822,3.518c11.504-6.508,18.114-17.118,18.114-17.118S1091.497,760.943,1080.522,760.788z"/>
							<path style="fill:#363E44;" d="M1067.603,762.594c-14.796,4.631-24.053,17.86-25.546,20.116         c0.096,0.195,0.195,0.387,0.297,0.579c2.871,1.129,17.768,6.468,32.324,1.912c2.729-0.854,5.253-2.017,7.593-3.336         c0.434-0.994,0.825-2.017,1.117-3.095c1.728-6.376,0.473-12.843-2.884-17.965         C1076.392,760.766,1071.986,761.222,1067.603,762.594z"/>
						</g>
						<g>
							<path style="fill:#FFFFFF;" d="M1001.527,767.007c-1.313,4.525-1.467,8.187,0.038,12.443         c10.996,2.285,20.645,0.337,20.645,0.337s-5.189-13.811-16.818-22.633C1003.355,759.965,1002.459,763.795,1001.527,767.007z"/>
							<path style="fill:#363E44;" d="M1001.331,779.397c5.214-6.015,6.896-14.529,4.041-22.221         c-1.312-0.981-2.684-1.918-4.166-2.749c-14.8-8.301-32.591-4.699-32.591-4.699s6.203,17.06,21.003,25.36         C993.444,777.234,997.466,778.574,1001.331,779.397z"/>
						</g>
					</g>
					<path style="fill:#363E44;" d="M1043.844,811.945c-0.746,0-1.474-0.378-1.888-1.063c-0.631-1.041-0.298-2.398,0.744-3.028       c2.961-1.794,4.596-3.659,4.728-5.396c0.118-1.538-0.958-2.932-1.998-4.278c-0.25-0.324-0.491-0.635-0.707-0.938       c-2.657-3.688-3.871-8.568-3.61-14.506c0.054-1.216,1.113-2.15,2.3-2.106c1.216,0.054,2.16,1.083,2.106,2.3       c-0.216,4.922,0.719,8.871,2.783,11.736c0.189,0.264,0.401,0.536,0.618,0.818c1.331,1.724,3.153,4.083,2.906,7.311       c-0.25,3.261-2.55,6.232-6.84,8.831C1044.628,811.843,1044.233,811.945,1043.844,811.945z"/>
					<path style="fill:#363E44;" d="M998.265,712.092c-5.615,1.753-23.1,7.995-35.909,26.065       c-12.215,17.232-4.996,37.356-3.258,43.438c-2.848,0-14.094-2.389-16.941-2.389c0.543-23.348,1.52-27.366-5.901-34.787       c-9.245-9.245-22.416-7.217-24.145-6.985c1.375-5.904,5.564-19.956,18.389-29.396       C948.45,694.826,975.944,696.071,998.265,712.092z"/>
					<path style="fill:#363E44;" d="M1027.648,840.435c-3.869,0-7.466-1.009-10.46-2.943c-5.771-3.73-8.625-10.356-8.809-13.867       c-0.107-2.058,0.644-3.112,1.292-3.633c1.9-1.532,3.939-0.164,6.099,1.29c2.095,1.409,4.964,3.341,9.098,4.544       c3.925,1.143,8.166,1.369,12.607,0.67c1.186-0.194,2.331,0.632,2.52,1.836c0.189,1.203-0.632,2.331-1.836,2.52       c-5.083,0.8-9.972,0.533-14.525-0.792c-4.792-1.395-8.123-3.637-10.326-5.119c-0.095-0.064-0.192-0.129-0.291-0.196       c0.662,2.436,2.687,6.539,6.565,9.045c3.156,2.041,6.61,2.334,8.96,2.215c1.239-0.062,2.251,0.878,2.311,2.094       c0.059,1.216-0.879,2.251-2.094,2.311C1028.387,840.426,1028.016,840.435,1027.648,840.435z"/>
					<g>
						<path style="fill:#E2A18D;" d="M901.707,740.706c12.326-7.916,36.649-4.831,39.69,13.468l0.469,42.454        c-0.895,0.778-1.832,1.514-2.851,2.168c-13.558,8.71-32.901,2.765-43.204-13.276        C885.509,769.478,888.148,749.414,901.707,740.706z"/>
						<path style="fill:#363E44;" d="M908.422,780.262c-0.596,0-1.192-0.24-1.627-0.715c-0.974-1.064-1.869-2.225-2.657-3.452        c-3.122-4.861-4.454-10.479-3.752-15.82c0.721-5.479,3.483-10.015,7.776-12.772c2.181-1.401,4.617-2.254,7.24-2.534        c1.21-0.132,2.297,0.746,2.427,1.957c0.13,1.211-0.746,2.297-1.957,2.427c-1.935,0.208-3.727,0.833-5.326,1.86        c-3.183,2.044-5.239,5.467-5.788,9.638c-0.566,4.31,0.531,8.877,3.09,12.862c0.652,1.016,1.392,1.978,2.198,2.856        c0.823,0.898,0.762,2.292-0.136,3.116C909.488,780.07,908.954,780.262,908.422,780.262z"/>
					</g>
				</g>
				<g>
					<path style="fill:#FFFFFF;" d="M919.123,562.048c7.696-33.032,40.713-53.57,73.743-45.874c1.694,0.395,3.345,0.872,4.97,1.396       c14.328-17.813,38.072-26.88,61.826-21.346c23.753,5.535,41.045,24.163,46.024,46.475c1.69,0.248,3.382,0.55,5.076,0.944       c33.031,7.697,53.569,40.713,45.874,73.744c-5.863,25.161-26.422,43.057-50.482,46.762l-13.481,65.319l-169.89-13.227       l20.954-89.934C923.791,612.348,913.26,587.209,919.123,562.048z"/>
					<path style="fill:#363E44;" d="M1089.091,666.583c-0.094,0-0.188-0.005-0.284-0.018c-2.139-0.274-4.298-0.663-6.415-1.156       c-21.642-5.044-38.797-20.643-45.889-41.731c-0.389-1.154,0.232-2.405,1.387-2.793c1.158-0.39,2.405,0.234,2.793,1.387       c6.602,19.628,22.567,34.149,42.71,38.842c1.973,0.46,3.984,0.823,5.977,1.079c1.208,0.155,2.061,1.26,1.906,2.467       C1091.132,665.772,1090.183,666.583,1089.091,666.583z"/>
				</g>
			</g>
			<g>
				<path style="fill:#FFFFFF;" d="M1923.493,687.06c0,51.74-84.013,225.892-326.358,225.892      c-255.27,0-326.358-174.152-326.358-225.892c0-51.739,146.115-93.683,326.358-93.683S1923.493,635.32,1923.493,687.06z"/>
				<ellipse style="fill:#D87355;" cx="1597.135" cy="687.06" rx="326.358" ry="93.683"/>
				<path style="fill:#E6D0BE;" d="M1891.273,687.06c0,46.632-131.69,84.434-294.138,84.434s-294.138-37.802-294.138-84.434      c0-46.632,188.104-161.577,294.138-161.577C1714.838,525.482,1891.273,640.428,1891.273,687.06z"/>
				<path style="fill:#FFD092;" d="M1597.134,812.873c-144.282,0-270.14-26.688-313.181-66.409      c-0.893-0.826-0.949-2.221-0.123-3.116c0.825-0.895,2.22-0.949,3.116-0.125c41.62,38.412,169.175,65.24,310.188,65.24      c136.772,0,259.65-24.697,305.768-61.455c0.952-0.759,2.34-0.601,3.098,0.35c0.758,0.953,0.601,2.339-0.351,3.098      C1858.812,787.79,1734.828,812.873,1597.134,812.873z"/>
				<g>
					<path style="fill:#8B865C;" d="M1628.491,500.637c32.925-11.655,72.23,14.511,72.23,14.511s-14.077,45.064-47.002,56.719       c-32.925,11.655-72.23-14.511-72.23-14.511S1595.566,512.292,1628.491,500.637z"/>
					<path style="fill:#363E44;" d="M1571.632,568.285c-0.616,0-1.229-0.258-1.667-0.761c-0.797-0.92-0.698-2.313,0.224-3.11       c11.13-9.641,23.31-18.067,36.203-25.045c21.17-11.458,44.096-19.016,68.136-22.468c1.223-0.178,2.321,0.664,2.498,1.869       c0.172,1.206-0.665,2.322-1.869,2.496c-23.525,3.377-45.954,10.773-66.668,21.981c-12.611,6.827-24.526,15.07-35.415,24.501       C1572.659,568.108,1572.145,568.285,1571.632,568.285z"/>
				</g>
				<g>
					<path style="fill:#9E9569;" d="M1557.969,765.262c-22.858-26.403-12.813-72.533-12.813-72.533s47.105-3.321,69.963,23.082       c22.858,26.403,12.813,72.533,12.813,72.533S1580.827,791.665,1557.969,765.262z"/>
					<path style="fill:#363E44;" d="M1639.65,796.545c-0.345,0-0.695-0.081-1.023-0.253c-13.037-6.848-25.327-15.116-36.526-24.574       c-18.392-15.536-33.789-34.122-45.765-55.244c-0.601-1.059-0.228-2.405,0.831-3.006c1.055-0.599,2.403-0.228,3.006,0.831       c11.717,20.667,26.781,38.852,44.775,54.049c10.953,9.253,22.974,17.34,35.729,24.04c1.079,0.566,1.494,1.899,0.928,2.977       C1641.209,796.117,1640.443,796.545,1639.65,796.545z"/>
				</g>
				<g>
					
						<ellipse transform="matrix(0.525 -0.8511 0.8511 0.525 339.5506 1777.9861)" style="fill:#363E44;" cx="1762.637" cy="584.797" rx="44.145" ry="68.508"/>
					<path style="fill:#FFFFFF;" d="M1720.979,549.185c0.218-1.984,17.86-4.194,35.67,0.453       c36.924,9.635,57.475,44.288,55.954,45.831c-1.227,1.245-16.178-19.644-48.507-33.458       C1740.373,551.873,1720.747,551.296,1720.979,549.185z"/>
				</g>
				<g>
					<path style="fill:#D87355;" d="M1575,487.439c-0.514-11.065-8.516-20.364-19.4-22.437       c-16.424-3.129-39.903-2.682-64.367,13.662c-42.843,28.625-39.336,103.54-0.606,141.945       c28.01,27.777,68.954,20.671,87.909,17.382c8.626-1.497,18.078-3.596,27.899-6.325c12.767-3.547,21.209-14.554,22.284-26.752       c0.659-7.474-3.229-14.719-9.742-18.448C1586.439,567.836,1577.005,530.625,1575,487.439z"/>
					<path style="fill:#E2A18D;" d="M1555.485,493.139c-9.657-10.341-33.133-6.555-47.491,2.97       c-23.488,15.579-26.372,49.027-20.758,71.276c6.481,25.684,26.655,45.812,50.581,53.201       c34.637,10.697,67.581-5.814,68.141-18.901c0.606-14.172-34.855-12.371-47.263-43.684       C1548.245,531.626,1567.964,506.502,1555.485,493.139z"/>
					<g>
						<path style="fill:#FFFFFF;" d="M1537.469,513.12c4.069,2.717,6.152,6.738,4.653,8.982c-1.499,2.244-6.013,1.861-10.082-0.855        c-4.069-2.717-6.152-6.738-4.653-8.982C1528.887,510.02,1533.4,510.403,1537.469,513.12z"/>
						<path style="fill:#FFFFFF;" d="M1516.504,542.807c-4.892-0.034-8.843-2.25-8.824-4.948c0.019-2.699,4-4.859,8.893-4.824        c4.892,0.034,8.843,2.25,8.824,4.948C1525.378,540.682,1521.396,542.841,1516.504,542.807z"/>
						<path style="fill:#FFFFFF;" d="M1533.155,548.173c4.515-1.884,9.018-1.392,10.058,1.099c1.04,2.491-1.778,6.037-6.293,7.92        c-4.515,1.884-9.018,1.392-10.058-1.099S1528.639,550.057,1533.155,548.173z"/>
						<path style="fill:#FFFFFF;" d="M1525.648,581.492c4.222-2.471,8.751-2.587,10.115-0.258c1.364,2.329-0.953,6.22-5.175,8.692        s-8.751,2.587-10.115,0.258C1519.109,587.855,1521.426,583.963,1525.648,581.492z"/>
						<path style="fill:#FFFFFF;" d="M1557.228,591.366c2.208-4.365,5.951-6.916,8.36-5.698c2.409,1.218,2.571,5.744,0.363,10.109        c-2.208,4.365-5.951,6.916-8.36,5.698C1555.182,600.257,1555.02,595.731,1557.228,591.366z"/>
					</g>
				</g>
				<g>
					<path style="fill:#9E9569;" d="M1656.787,697.291c10.186-2.018,30.366-4.581,54.08,2.426       c28.6,8.451,45.962,25.981,52.886,33.83c9.263-10.008,18.526-20.016,27.79-30.025c-9.077-5.544-24.647-16.817-36.406-36.578       c-20.217-33.974-14.549-68.466-12.673-77.904c-5.913,0.666-46.142,5.88-70.443,42.231       C1652.982,659.75,1655.772,689.311,1656.787,697.291z"/>
					<path style="fill:#8B865C;" d="M1741.566,573.697c-11.23-10.389-28.757-9.71-39.148,1.517c-4,4.322-6.343,9.578-7.091,14.999       c-0.259-0.281-0.52-0.559-0.804-0.822c-5.702-5.275-14.6-4.929-19.875,0.771c-1.813,1.958-2.946,4.296-3.442,6.732       c-13.497-11.512-33.796-10.415-45.955,2.722c-12.47,13.473-11.654,34.5,1.822,46.966c0.209,0.193,0.426,0.375,0.638,0.561       c-3.043,6.445-2.088,14.249,2.715,19.793c-0.442,0.416-0.888,0.824-1.307,1.277c-9.912,10.709-9.263,27.422,1.449,37.332       c10.711,9.909,27.429,9.26,37.341-1.448c4.009-4.331,6.26-9.646,6.847-15.095c9.102,4.112,20.182,2.204,27.338-5.528       c4.09-4.419,6.167-9.97,6.317-15.551c8.695,5.551,20.372,4.282,27.625-3.555c6.51-7.033,7.465-17.209,3.106-25.178       c2.074-1.125,4.009-2.584,5.699-4.41c7.111-7.682,7.719-19.039,2.133-27.367       C1753.007,596.518,1751.118,582.533,1741.566,573.697z"/>
				</g>
				
					<ellipse transform="matrix(0.989 -0.1482 0.1482 0.989 -74.6174 276.2345)" style="fill:#FFFFFF;" cx="1816.326" cy="638.827" rx="57.597" ry="36.392"/>
				<ellipse style="fill:#9E9569;" cx="1425.372" cy="696.045" rx="52.205" ry="26.096"/>
				<ellipse style="fill:#9E9569;" cx="1847.304" cy="699.62" rx="45.054" ry="19.661"/>
				<ellipse style="fill:#FFFFFF;" cx="1695.694" cy="741.087" rx="45.054" ry="19.661"/>
				<g>
					
						<ellipse transform="matrix(0.9881 -0.1537 0.1537 0.9881 -93.3258 233.5319)" style="fill:#363E44;" cx="1463.232" cy="720.162" rx="68.513" ry="44.142"/>
					<path style="fill:#FFFFFF;" d="M1408.422,720.161c-1.124-1.649,10.848-14.792,27.405-22.831       c34.326-16.667,72.472-3.682,72.319-1.522c-0.123,1.743-25.065-4.419-58.617,6.087       C1424.909,709.604,1409.617,721.916,1408.422,720.161z"/>
				</g>
				<g>
					<path style="fill:#9E9569;" d="M1338.66,563.217c2.47,10.083,5.931,30.124-0.015,54.12       c-7.17,28.941-23.915,47.062-31.449,54.327c10.414,8.806,20.827,17.612,31.241,26.417c5.135-9.313,15.706-25.366,34.929-37.991       c33.048-21.705,67.767-17.581,77.282-16.128c-0.929-5.876-7.931-45.822-45.338-68.474       C1376.004,557.744,1346.589,561.847,1338.66,563.217z"/>
					<path style="fill:#8B865C;" d="M1465.939,642.384c9.881-11.679,8.422-29.154-3.26-39.032       c-4.497-3.802-9.853-5.908-15.304-6.414c0.269-0.271,0.536-0.544,0.786-0.84c5.017-5.93,4.275-14.801-1.656-19.816       c-2.038-1.723-4.424-2.751-6.88-3.138c10.902-13.993,8.902-34.218-4.767-45.776c-14.018-11.854-34.994-10.102-46.85,3.912       c-0.184,0.217-0.355,0.442-0.532,0.662c-6.576-2.752-14.331-1.451-19.657,3.594c-0.435-0.423-0.863-0.851-1.334-1.249       c-11.143-9.422-27.815-8.03-37.24,3.11c-9.424,11.139-8.032,27.807,3.111,37.23c4.506,3.811,9.918,5.823,15.389,6.166       c-3.703,9.274-1.303,20.255,6.742,27.058c4.598,3.888,10.238,5.715,15.821,5.616c-5.159,8.931-3.371,20.537,4.783,27.432       c7.318,6.188,17.529,6.69,25.298,1.981c1.217,2.021,2.761,3.888,4.661,5.495c7.994,6.759,19.369,6.862,27.442,0.911       C1443.645,654.827,1457.535,652.317,1465.939,642.384z"/>
				</g>
			</g>
		</g>
		<g>
			<g>
				<path style="fill:#E0AA63;" d="M1708.35,1386.671c-0.562,0-1.105-0.215-1.516-0.603c-0.424-0.402-0.672-0.956-0.689-1.541      l-4.97-178.765c-1.524-54.896,41.896-100.798,96.792-102.325c26.563-0.76,51.88,8.921,71.207,27.203      c19.327,18.281,30.376,42.994,31.117,69.586l4.969,178.765c0.032,1.218-0.926,2.232-2.145,2.265l-194.707,5.413      C1708.391,1386.671,1708.37,1386.671,1708.35,1386.671z M1800.802,1107.808c-0.902,0-1.807,0.013-2.713,0.038      c-52.466,1.46-93.963,45.33-92.503,97.795l4.907,176.561l190.299-5.29l-4.909-176.561      c-0.706-25.415-11.267-49.033-29.737-66.505C1848.333,1116.995,1825.221,1107.808,1800.802,1107.808z"/>
				<path style="fill:#E0AA63;" d="M1664.189,1387.898c-0.562,0-1.104-0.215-1.516-0.603c-0.424-0.401-0.672-0.956-0.689-1.541      l-4.969-178.765c-0.739-26.592,8.923-51.881,27.203-71.208c18.282-19.327,42.994-30.378,69.587-31.116      c26.561-0.745,51.878,8.92,71.207,27.202c19.327,18.281,30.377,42.995,31.117,69.587l4.969,178.764      c0.032,1.218-0.926,2.232-2.144,2.265l-194.705,5.413C1664.23,1387.898,1664.209,1387.898,1664.189,1387.898z       M1756.641,1109.036c-0.904,0-1.807,0.013-2.715,0.038c-25.414,0.706-49.034,11.267-66.504,29.739      c-17.471,18.471-26.703,42.64-25.997,68.054l4.907,176.561l190.297-5.29l-4.909-176.56      c-0.706-25.416-11.267-49.035-29.737-66.506C1804.17,1118.224,1781.058,1109.036,1756.641,1109.036z"/>
				<polygon style="fill:#EFBC73;" points="2116.119,2129.032 1485.478,2146.563 1503.382,1341.086 2053.496,1325.794     "/>
				<polygon style="fill:#E0AA63;" points="1503.382,1341.086 1422.775,2063.232 1485.478,2146.563     "/>
				<polygon style="fill:#EFBC73;" points="1503.382,1341.086 1422.775,2063.232 1348.769,2053.552     "/>
			</g>
			<g>
				<g>
					
						<ellipse transform="matrix(0.7071 -0.7071 0.7071 0.7071 -699.6799 1771.8822)" style="fill:#FFFFFF;" cx="1789.011" cy="1730.529" rx="224.115" ry="224.115"/>
					<g>
						
							<ellipse transform="matrix(0.7071 -0.7071 0.7071 0.7071 -699.6799 1771.8822)" style="fill:#F7F1EB;" cx="1789.011" cy="1730.529" rx="137.306" ry="137.306"/>
					</g>
				</g>
				<g>
					<path style="fill:#363E44;" d="M1876.34,1896.58h-18.475v-147.338l0,0c-8.282-8.141-12.799-18.29-12.799-28.755v-58.238       c0-34.151,10.75-67.76,31.274-97.772l0,0V1896.58z"/>
					<g>
						<polygon style="fill:#363E44;" points="1742.452,1896.259 1713.622,1896.259 1716.673,1745.1 1739.401,1745.1       "/>
						<rect x="1723.563" y="1644.403" style="fill:#363E44;" width="8.947" height="100.524"/>
						<path style="fill:#363E44;" d="M1756.135,1646.607h-56.658v-77.239c0-1.218,0.986-2.205,2.205-2.205        c1.219,0,2.205,0.987,2.205,2.205v72.829h47.839v-72.829c0-1.218,0.986-2.205,2.205-2.205c1.219,0,2.205,0.987,2.205,2.205        V1646.607z"/>
						<path style="fill:#363E44;" d="M1739.461,1646.607h-23.435v-77.239c0-1.218,0.986-2.205,2.205-2.205        c1.219,0,2.205,0.987,2.205,2.205v72.829h14.615v-72.829c0-1.218,0.986-2.205,2.205-2.205c1.219,0,2.205,0.987,2.205,2.205        V1646.607z"/>
					</g>
				</g>
			</g>
		</g>
	</g>
</g>
</svg>